<svg width="249" height="46" viewBox="0 0 249 46" fill="none" xmlns="http://www.w3.org/2000/svg">
<path d="M12.9438 1.32617C15.3205 1.38997 16.5566 12.3639 16.6523 34.248L17.6812 44.8472L16.0303 45.1343H15.3364L14.3555 44.1533V31.9033L14.0205 26.9507H13.7095C8.42985 27.6047 5.54281 28.7212 5.04834 30.3003C4.20296 38.3234 3.56494 42.3828 3.13428 42.4785H1.81836L0.478516 41.1626C1.56315 32.7726 3.33366 23.5133 5.79004 13.3848C7.48079 5.02669 9.8654 1.00716 12.9438 1.32617ZM6.125 24.6538L7.75195 25.9219C12.1543 24.9489 14.3555 24.1992 14.3555 23.6729V17.6914L14.6904 13.3848L13.877 10.0591C13.2549 7.4113 12.6009 6.0874 11.915 6.0874C10.5114 6.0874 8.58138 12.2762 6.125 24.6538Z" fill="#6DAA2C"/>
<path d="M31.1514 5.48926C32.3955 5.48926 33.1611 6.03158 33.4482 7.11621L32.7783 9.46094C33.3206 31.8395 33.8231 42.7656 34.2856 42.2393L33.209 43.0288C32.2998 42.63 31.8133 42.4307 31.7495 42.4307L31.4385 28.6255L31.1514 28.2905H30.8164C29.4766 37.5578 27.4827 42.1914 24.835 42.1914H24.189C21.5412 42.1914 20.2173 39.5436 20.2173 34.248C20.2173 30.404 22.0994 26.6476 25.8638 22.979C28.9582 22.2612 30.5054 21.057 30.5054 19.3662V14.7485L29.8354 7.11621C30.2502 6.12728 30.6888 5.58496 31.1514 5.48926ZM22.873 32.9321V36.21C22.873 37.9167 23.4313 39.0332 24.5479 39.5596H24.835C26.1429 39.5596 27.6901 34.7026 29.4766 24.9888L29.1895 24.6538H27.8735C24.5399 26.6795 22.873 29.439 22.873 32.9321Z" fill="#6DAA2C"/>
<path d="M44.502 15.9209H45.5308L46.5117 16.6147L46.1528 21.5195C46.7749 33.2432 47.7718 39.105 49.1436 39.105H49.7896V39.3921C49.7896 40.6043 49.3509 41.3939 48.4736 41.7607H47.1338C46.2565 41.7607 45.4909 39.3283 44.8369 34.4634H44.502C43.2259 41.9761 41.248 45.7324 38.5684 45.7324C37.0371 45.7324 36.2715 43.3957 36.2715 38.7222V35.1333C36.2715 24.9728 38.1297 19.2386 41.8462 17.9307C42.4683 17.9307 43.3535 17.2607 44.502 15.9209ZM38.5684 34.1045V38.7222C38.5684 41.1626 38.8953 42.3828 39.5493 42.3828C40.9849 42.3828 42.4204 36.6566 43.856 25.2041V24.8452C43.6965 21.7508 43.3695 20.2036 42.875 20.2036H41.8462C39.661 20.2036 38.5684 24.8372 38.5684 34.1045Z" fill="#6DAA2C"/>
<path d="M67.3271 13.9111C69.3848 13.9111 70.8363 20.6263 71.6816 34.0566V40.6841L70.6528 41.7129C69.7118 41.7129 69.0418 41.2663 68.6431 40.373L69.3369 33.4346C68.8424 23.5612 68.0768 18.481 67.04 18.1938H66.394C64.3683 23.6808 63.3555 30.731 63.3555 39.3442L62.4224 40.0381H61.1064C60.7077 40.0381 60.3647 39.4798 60.0776 38.3633C60.9549 36.832 61.3936 32.98 61.3936 26.8071C61.1064 22.6281 60.5641 20.5386 59.7666 20.5386H59.3838C57.6133 20.5386 56.728 25.4912 56.728 35.3965V38.0283L57.1348 40.0381C56.6403 41.346 55.755 42 54.479 42L53.1631 40.373L53.8091 36.0664V34.4155L52.7803 19.5098C52.7803 18.2656 53.3465 17.5 54.479 17.2129C55.3722 17.4362 55.8188 18.1061 55.8188 19.2227L55.125 21.1846V21.8545H55.4121C57.1507 18.5208 58.4746 16.854 59.3838 16.854C60.5641 16.854 61.7923 18.0822 63.0684 20.5386C63.515 20.5386 64.2806 18.6564 65.3652 14.8921L67.3271 13.9111Z" fill="#6DAA2C"/>
<path d="M78.7637 4.91504C77.1527 10.402 76.1239 13.3848 75.6772 13.8633H75.4141L74.6484 12.8345C74.6484 11.9253 74.9036 11.048 75.4141 10.2026C76.2116 5.36963 76.9054 2.95312 77.4956 2.95312C78.341 3.36784 78.7637 4.02181 78.7637 4.91504Z" fill="#6DAA2C"/>
<path d="M92.856 14.4614L93.2148 14.8442V15.4902C89.0199 18.457 86.9224 21.5435 86.9224 24.7495V25.4434C86.9224 27.7881 88.8045 31.0819 92.5688 35.3247L92.856 36.6646C91.2609 40.8436 88.1745 42.9331 83.5967 42.9331C81.1882 42.9331 79.9839 42.0479 79.9839 40.2773L83.9316 40.6362H85.2715C88.3659 39.8866 89.9131 38.5627 89.9131 36.6646V36.3057C89.9131 35.7633 88.3659 33.2352 85.2715 28.7212L84.2905 25.0366C84.2905 20.9852 86.9383 17.4601 92.2339 14.4614H92.856Z" fill="#6DAA2C"/>
<path d="M135.563 0.799805C136.903 1.24642 137.573 1.68506 137.573 2.11572C137.573 2.8654 137.23 3.63102 136.544 4.4126C136.146 16.9976 134.184 29.2316 130.659 41.1147L129.056 42.0957C128.003 42.0957 127.333 40.4448 127.046 37.1431C125.499 33.1235 123.274 22.333 120.371 4.77148L121.687 3.43164C122.994 3.43164 124.893 13.3449 127.381 33.1714C128.561 36.0265 129.327 37.4541 129.678 37.4541C132.326 28.139 133.649 20.8656 133.649 15.6338V12.6909L133.889 1.78076L135.563 0.799805Z" fill="#6DAA2C"/>
<path d="M141.066 11.1357C141.912 11.1357 142.693 11.5744 143.411 12.4517C143.411 13.1056 142.63 13.8713 141.066 14.7485C140.476 14.7485 139.934 14.2142 139.439 13.1455C139.87 11.9333 140.412 11.2633 141.066 11.1357ZM141.066 19.749L142.095 21.0889C141.218 21.9661 140.779 24.3826 140.779 28.3384C140.875 32.5174 141.521 36.5848 142.717 40.5405V41.2104L141.76 42.2393H140.779C139.727 42.2393 138.937 37.0474 138.411 26.6636C138.411 22.0539 139.081 19.749 140.42 19.749H141.066Z" fill="#6DAA2C"/>
<path d="M155.398 14.4614L155.757 14.8442V15.4902C151.562 18.457 149.464 21.5435 149.464 24.7495V25.4434C149.464 27.7881 151.347 31.0819 155.111 35.3247L155.398 36.6646C153.803 40.8436 150.716 42.9331 146.139 42.9331C143.73 42.9331 142.526 42.0479 142.526 40.2773L146.474 40.6362H147.813C150.908 39.8866 152.455 38.5627 152.455 36.6646V36.3057C152.455 35.7633 150.908 33.2352 147.813 28.7212L146.833 25.0366C146.833 20.9852 149.48 17.4601 154.776 14.4614H155.398Z" fill="#6DAA2C"/>
<path d="M169.155 17.5479L169.801 18.2417L169.155 20.8735V21.9023L169.442 24.5581C168.565 36.4412 166.707 42.3828 163.868 42.3828C160.965 42.3828 158.859 36.7523 157.551 25.4912V23.5293C157.551 21.8545 157.99 20.8735 158.867 20.5864H159.561L160.542 21.2324L160.183 23.5293V26.8071C160.183 31.1935 161.18 35.5081 163.174 39.751H163.868C165.399 39.1289 166.38 34.9499 166.811 27.2139V23.8643C166.811 22.3011 166.595 21.0809 166.165 20.2036C166.165 18.8 167.161 17.9147 169.155 17.5479Z" fill="#6DAA2C"/>
<path d="M180.64 15.9209H181.668L182.649 16.6147L182.291 21.5195C182.913 33.2432 183.91 39.105 185.281 39.105H185.927V39.3921C185.927 40.6043 185.489 41.3939 184.611 41.7607H183.271C182.394 41.7607 181.629 39.3283 180.975 34.4634H180.64C179.364 41.9761 177.386 45.7324 174.706 45.7324C173.175 45.7324 172.409 43.3957 172.409 38.7222V35.1333C172.409 24.9728 174.267 19.2386 177.984 17.9307C178.606 17.9307 179.491 17.2607 180.64 15.9209ZM174.706 34.1045V38.7222C174.706 41.1626 175.033 42.3828 175.687 42.3828C177.123 42.3828 178.558 36.6566 179.994 25.2041V24.8452C179.834 21.7508 179.507 20.2036 179.013 20.2036H177.984C175.799 20.2036 174.706 24.8372 174.706 34.1045Z" fill="#6DAA2C"/>
<path d="M190.928 3.38379L192.052 3.09668L191.789 9.12598L191.693 14.5093L191.957 29.9893L191.646 36.6167L192.339 40.5884C192.339 41.0031 191.765 41.673 190.617 42.5981L189.014 41.2583C189.46 40.1258 189.684 37.805 189.684 34.2959V33.6738L190.186 4.46045C190.569 3.74268 190.816 3.38379 190.928 3.38379Z" fill="#6DAA2C"/>
<path d="M198.201 11.1357C199.047 11.1357 199.828 11.5744 200.546 12.4517C200.546 13.1056 199.764 13.8713 198.201 14.7485C197.611 14.7485 197.069 14.2142 196.574 13.1455C197.005 11.9333 197.547 11.2633 198.201 11.1357ZM198.201 19.749L199.23 21.0889C198.353 21.9661 197.914 24.3826 197.914 28.3384C198.01 32.5174 198.656 36.5848 199.852 40.5405V41.2104L198.895 42.2393H197.914C196.861 42.2393 196.072 37.0474 195.545 26.6636C195.545 22.0539 196.215 19.749 197.555 19.749H198.201Z" fill="#6DAA2C"/>
<path d="M211.911 11.5186H212.246C213.123 11.8216 213.562 12.8026 213.562 14.4614V15.1553C213.562 18.9674 211.033 26.8071 205.977 38.6743V39.2964L206.599 39.9902H207.58C208.41 39.9902 211.289 38.8817 216.217 36.6646H217.198L218.179 37.6455V38.2676L216.552 39.9902L216.217 39.6074H215.236L206.958 42.9331C203.848 42.4067 202.292 41.6411 202.292 40.6362C208.051 28.769 210.93 21.1527 210.93 17.7871V14.4614H210.236C209.614 14.4614 207.524 15.57 203.967 17.7871H202.986L202.005 16.4712C202.005 15.9448 203.656 14.9639 206.958 13.5283C208.457 12.2523 210.108 11.5824 211.911 11.5186Z" fill="#6DAA2C"/>
<path d="M227.247 14.3657C230.772 15.4025 232.535 17.165 232.535 19.6533V20.6343C232.535 25.563 230.326 28.9764 225.907 30.8745H223.658V31.5684C223.658 35.5241 224.639 38.2835 226.601 39.8467H227.63C228.874 39.8467 230.637 38.0841 232.917 34.5591L233.205 34.8462H233.563C231.984 39.9344 229.775 42.4785 226.936 42.4785C224.352 42.4785 222.247 37.9565 220.62 28.9126C220.269 28.9126 220.053 28.3623 219.974 27.2617C220.867 26.5758 221.656 23.7127 222.342 18.6724C224.033 15.8013 225.668 14.3657 227.247 14.3657ZM223.275 26.6157C223.467 27.7004 223.81 28.2427 224.304 28.2427H226.314C228.962 26.9985 230.286 24.4624 230.286 20.6343V20.2993C229.951 18.1141 228.938 17.0215 227.247 17.0215C224.599 17.0215 223.275 20.2196 223.275 26.6157Z" fill="#6DAA2C"/>
<path d="M245.718 15.7773H246.699L248.039 17.1172V17.7871L247.345 18.4331L245.718 18.0981C242.193 22.7557 240.43 27.166 240.43 31.3291V36.6167L240.741 40.2773C240.741 41.1706 240.199 41.6172 239.114 41.6172V41.9043C238.237 41.5693 237.798 41.2424 237.798 40.9233V37.2866C236.969 26.7114 236.299 21.4238 235.789 21.4238C236.235 20.084 236.674 19.4141 237.104 19.4141H237.439C238.333 19.765 238.779 20.5465 238.779 21.7588V25.3955H239.114C241.299 20.6263 243.501 17.4202 245.718 15.7773Z" fill="#6DAA2C"/>
</svg>
