<?xml version="1.0" encoding="UTF-8" standalone="no"?>
<!DOCTYPE svg PUBLIC "-//W3C//DTD SVG 1.1//EN" "http://www.w3.org/Graphics/SVG/1.1/DTD/svg11.dtd">
<svg xmlns="http://www.w3.org/2000/svg" version="1.1" viewBox="0 0 1024 1024">
<g stroke-width="2.00" fill="none" stroke-linecap="butt">
<path stroke="#5d4b4b" vector-effect="non-scaling-stroke" d="
  M 896.25 576.04
  Q 896.00 576.53 896.00 577.75
  Q 896.05 640.72 895.94 703.32
  A 0.68 0.68 -0.0 0 1 895.26 704.00
  L 832.25 703.96"
/>
<path stroke="#653832" vector-effect="non-scaling-stroke" d="
  M 832.25 703.96
  Q 831.71 666.97 832.00 644.00
  Q 832.03 641.42 831.71 640.25"
/>
<path stroke="#8b5130" vector-effect="non-scaling-stroke" d="
  M 831.71 640.25
  Q 832.00 639.76 832.00 638.50
  Q 832.00 543.50 832.00 448.85
  A 0.85 0.85 -45.0 0 0 831.15 448.00
  L 768.80 448.06
  A 0.81 0.80 -90.0 0 0 768.00 448.87
  L 768.00 511.15
  A 0.85 0.85 45.0 0 1 767.15 512.00
  L 704.50 512.00
  A 0.50 0.50 45.0 0 1 704.00 511.50
  L 703.96 448.00"
/>
<path stroke="#8f7c49" vector-effect="non-scaling-stroke" d="
  M 703.96 448.00
  Q 704.00 447.79 704.21 447.75"
/>
<path stroke="#8b5130" vector-effect="non-scaling-stroke" d="
  M 704.21 447.75
  L 767.20 447.99
  A 0.80 0.79 -89.6 0 0 768.00 447.19
  L 768.00 256.64
  A 0.64 0.64 45.0 0 0 767.36 256.00
  L 704.66 256.00
  A 0.60 0.59 -0.0 0 1 704.06 255.41
  L 704.06 192.71
  A 0.71 0.70 90.0 0 0 703.36 192.00
  Q 673.13 192.00 643.00 192.00
  Q 641.02 192.00 640.25 192.29"
/>
<path stroke="#8f7c49" vector-effect="non-scaling-stroke" d="
  M 640.25 192.29
  Q 639.76 192.00 638.50 192.00
  Q 511.12 191.97 383.75 192.04"
/>
<path stroke="#8b5130" vector-effect="non-scaling-stroke" d="
  M 383.75 192.04
  L 320.00 192.00"
/>
<path stroke="#8b5130" vector-effect="non-scaling-stroke" d="
  M 320.00 192.00
  L 320.00 255.19
  A 0.81 0.81 -45.0 0 1 319.19 256.00
  L 256.00 256.00"
/>
<path stroke="#ac652e" vector-effect="non-scaling-stroke" d="
  M 831.71 640.25
  L 768.56 640.06
  A 0.50 0.50 45.0 0 0 768.06 640.56
  L 768.00 704.00"
/>
<path stroke="#ac652e" vector-effect="non-scaling-stroke" d="
  M 768.00 704.00
  L 704.04 703.75"
/>
<path stroke="#d6a945" vector-effect="non-scaling-stroke" d="
  M 704.04 703.75
  Q 703.92 600.37 704.00 577.75
  Q 704.00 576.44 703.75 575.96"
/>
<path stroke="#ac652e" vector-effect="non-scaling-stroke" d="
  M 703.75 575.96
  L 703.99 513.16
  A 1.17 1.15 0.2 0 0 702.82 512.00
  L 640.00 511.96"
/>
<path stroke="#d6a945" vector-effect="non-scaling-stroke" d="
  M 383.75 192.04
  L 384.04 256.00"
/>
<path stroke="#8b5130" vector-effect="non-scaling-stroke" d="
  M 384.04 256.00
  L 383.94 319.44
  A 0.50 0.50 -45.0 0 1 383.44 319.94
  L 320.56 320.06
  A 0.50 0.50 45.0 0 0 320.06 320.56
  L 320.04 384.00"
/>
<path stroke="#d6a945" vector-effect="non-scaling-stroke" d="
  M 320.04 384.00
  L 319.96 448.00"
/>
<path stroke="#8b5130" vector-effect="non-scaling-stroke" d="
  M 319.96 448.00
  L 256.82 448.00
  A 0.82 0.82 -0.0 0 1 256.00 447.18
  L 256.00 256.00"
/>
<path stroke="#5d4b4b" vector-effect="non-scaling-stroke" d="
  M 768.00 831.96
  L 768.00 768.04"
/>
<path stroke="#7d5f49" vector-effect="non-scaling-stroke" d="
  M 768.00 768.04
  L 768.25 767.96"
/>
<path stroke="#5d4b4b" vector-effect="non-scaling-stroke" d="
  M 768.25 767.96
  L 831.26 768.00
  A 0.68 0.68 0.0 0 0 831.94 767.32
  L 832.00 704.04"
/>
<path stroke="#7d5f49" vector-effect="non-scaling-stroke" d="
  M 832.00 704.04
  L 832.25 703.96"
/>
<path stroke="#d6a945" vector-effect="non-scaling-stroke" d="
  M 703.96 448.00
  L 640.00 448.00"
/>
<path stroke="#d6a945" vector-effect="non-scaling-stroke" d="
  M 704.21 447.75
  L 703.96 383.75"
/>
<path stroke="#8b5130" vector-effect="non-scaling-stroke" d="
  M 703.96 383.75
  L 704.00 320.56
  A 0.56 0.56 90.0 0 0 703.44 320.00
  L 640.69 320.00
  A 0.69 0.69 -0.3 0 1 640.00 319.31
  L 639.96 256.00"
/>
<path stroke="#653832" vector-effect="non-scaling-stroke" d="
  M 832.00 704.04
  L 768.00 704.00"
/>
<path stroke="#d6a945" vector-effect="non-scaling-stroke" d="
  M 640.25 192.29
  L 639.96 256.00"
/>
<path stroke="#8f7c49" vector-effect="non-scaling-stroke" d="
  M 639.96 256.00
  L 384.04 256.00"
/>
<path stroke="#8f7c49" vector-effect="non-scaling-stroke" d="
  M 319.96 448.00
  Q 320.02 448.23 320.25 448.29"
/>
<path stroke="#8b5130" vector-effect="non-scaling-stroke" d="
  M 320.25 448.29
  L 320.00 512.00"
/>
<path stroke="#8b5130" vector-effect="non-scaling-stroke" d="
  M 320.00 512.00
  L 256.82 512.00
  A 0.82 0.82 -0.0 0 1 256.00 511.18
  L 255.94 448.56
  A 0.50 0.50 -45.0 0 0 255.44 448.06
  L 192.56 448.06
  A 0.50 0.50 45.0 0 0 192.06 448.56
  L 192.06 639.75
  Q 192.06 639.82 192.20 640.08
  L 192.29 640.25"
/>
<path stroke="#653832" vector-effect="non-scaling-stroke" d="
  M 192.29 640.25
  Q 192.00 640.74 192.00 642.00
  Q 192.00 672.00 192.00 703.19
  A 0.81 0.81 0.1 0 0 192.81 704.00
  Q 224.00 704.00 254.00 704.00
  Q 255.26 704.00 255.75 703.71"
/>
<path stroke="#8b5130" vector-effect="non-scaling-stroke" d="
  M 255.75 703.71
  L 256.25 704.04"
/>
<path stroke="#653832" vector-effect="non-scaling-stroke" d="
  M 256.25 704.04
  Q 255.68 735.68 256.18 767.31
  A 0.52 0.52 -0.6 0 0 256.69 767.82
  Q 286.72 768.14 316.75 768.00
  Q 318.94 767.99 319.75 767.71"
/>
<path stroke="#8b5130" vector-effect="non-scaling-stroke" d="
  M 319.75 767.71
  Q 320.26 768.01 321.50 768.00
  Q 333.13 767.92 384.00 768.04"
/>
<path stroke="#653832" vector-effect="non-scaling-stroke" d="
  M 384.00 768.04
  L 384.24 830.51
  A 1.51 1.50 -0.2 0 0 385.75 832.00
  L 640.00 832.00"
/>
<path stroke="#5d4b4b" vector-effect="non-scaling-stroke" d="
  M 256.25 831.96
  L 255.94 768.56
  A 0.51 0.51 89.4 0 0 255.43 768.06
  L 192.56 768.00
  A 0.56 0.56 -0.2 0 1 192.00 767.44
  L 192.00 704.56
  A 0.56 0.56 0.0 0 0 191.44 704.00
  L 128.56 704.00
  A 0.56 0.56 -0.2 0 1 128.00 703.44
  L 127.94 576.68
  A 0.55 0.38 12.8 0 0 127.56 576.27
  Q 127.38 576.20 127.25 576.04"
/>
<path stroke="#8f7c49" vector-effect="non-scaling-stroke" d="
  M 703.96 383.75
  L 640.56 384.06
  A 0.51 0.50 -0.6 0 0 640.06 384.56
  L 640.00 448.00"
/>
<path stroke="#8f7c49" vector-effect="non-scaling-stroke" d="
  M 640.00 448.00
  L 384.56 447.94
  A 0.50 0.49 0.0 0 1 384.06 447.45
  L 384.00 384.92
  A 0.92 0.92 0.0 0 0 383.08 384.00
  L 320.04 384.00"
/>
<path stroke="#d6a945" vector-effect="non-scaling-stroke" d="
  M 640.00 448.00
  L 640.00 511.96"
/>
<path stroke="#b09047" vector-effect="non-scaling-stroke" d="
  M 640.00 511.96
  L 576.25 512.06
  Q 576.18 512.06 575.92 512.20
  L 575.75 512.29"
/>
<path stroke="#d6a945" vector-effect="non-scaling-stroke" d="
  M 575.75 512.29
  Q 575.26 512.00 574.00 512.00
  Q 512.00 512.00 450.00 512.00
  Q 448.74 512.00 448.25 512.29"
/>
<path stroke="#b09047" vector-effect="non-scaling-stroke" d="
  M 448.25 512.29
  Q 447.76 512.00 446.50 512.00
  Q 416.50 512.00 386.50 512.00
  Q 384.52 512.00 383.75 511.71"
/>
<path stroke="#d6a945" vector-effect="non-scaling-stroke" d="
  M 383.75 511.71
  Q 384.18 481.94 384.01 452.17
  Q 384.01 452.11 384.14 450.33
  Q 384.33 447.67 381.60 447.88
  Q 380.02 448.00 379.89 448.00
  Q 351.95 448.00 324.00 448.00
  Q 321.36 448.00 320.25 448.29"
/>
<path stroke="#b09047" vector-effect="non-scaling-stroke" d="
  M 703.75 575.96
  L 576.04 576.00"
/>
<path stroke="#653832" vector-effect="non-scaling-stroke" d="
  M 768.00 704.00
  L 768.25 767.96"
/>
<path stroke="#653832" vector-effect="non-scaling-stroke" d="
  M 768.00 768.04
  L 704.00 767.96"
/>
<path stroke="#b09047" vector-effect="non-scaling-stroke" d="
  M 704.04 703.75
  L 703.96 704.00"
/>
<path stroke="#ac652e" vector-effect="non-scaling-stroke" d="
  M 383.75 511.71
  Q 383.26 512.00 382.00 512.00
  Q 351.00 512.00 320.00 512.00"
/>
<path stroke="#ac652e" vector-effect="non-scaling-stroke" d="
  M 320.00 512.00
  L 320.00 575.43
  A 0.57 0.57 90.0 0 0 320.57 576.00
  L 447.18 576.00
  A 0.84 0.83 -89.7 0 0 448.01 575.17
  L 448.25 512.29"
/>
<path stroke="#ac652e" vector-effect="non-scaling-stroke" d="
  M 575.75 512.29
  L 576.04 576.00"
/>
<path stroke="#d6a945" vector-effect="non-scaling-stroke" d="
  M 576.04 576.00
  L 576.00 703.19
  A 0.81 0.81 45.0 0 0 576.81 704.00
  L 703.96 704.00"
/>
<path stroke="#ac652e" vector-effect="non-scaling-stroke" d="
  M 703.96 704.00
  L 704.00 767.96"
/>
<path stroke="#8b5130" vector-effect="non-scaling-stroke" d="
  M 704.00 767.96
  L 640.25 768.06
  Q 640.18 768.06 639.92 768.20
  L 639.75 768.29"
/>
<path stroke="#ac652e" vector-effect="non-scaling-stroke" d="
  M 639.75 768.29
  Q 639.26 768.00 638.00 768.00
  Q 511.00 767.97 384.00 768.04"
/>
<path stroke="#ac652e" vector-effect="non-scaling-stroke" d="
  M 319.75 767.71
  L 319.99 704.90
  A 0.90 0.89 0.3 0 0 319.09 704.00
  L 256.25 704.04"
/>
<path stroke="#ac652e" vector-effect="non-scaling-stroke" d="
  M 255.75 703.71
  L 255.99 640.91
  A 0.89 0.89 0.2 0 0 255.09 640.01
  L 192.29 640.25"
/>
<path stroke="#653832" vector-effect="non-scaling-stroke" d="
  M 639.75 768.29
  L 640.00 832.00"
/>
</g>
<path fill="#442434" d="
  M 896.25 576.04
  Q 896.00 576.53 896.00 577.75
  Q 896.05 640.72 895.94 703.32
  A 0.68 0.68 -0.0 0 1 895.26 704.00
  L 832.25 703.96
  Q 831.71 666.97 832.00 644.00
  Q 832.03 641.42 831.71 640.25
  Q 832.00 639.76 832.00 638.50
  Q 832.00 543.50 832.00 448.85
  A 0.85 0.85 -45.0 0 0 831.15 448.00
  L 768.80 448.06
  A 0.81 0.80 -90.0 0 0 768.00 448.87
  L 768.00 511.15
  A 0.85 0.85 45.0 0 1 767.15 512.00
  L 704.50 512.00
  A 0.50 0.50 45.0 0 1 704.00 511.50
  L 703.96 448.00
  Q 704.00 447.79 704.21 447.75
  L 767.20 447.99
  A 0.80 0.79 -89.6 0 0 768.00 447.19
  L 768.00 256.64
  A 0.64 0.64 45.0 0 0 767.36 256.00
  L 704.66 256.00
  A 0.60 0.59 -0.0 0 1 704.06 255.41
  L 704.06 192.71
  A 0.71 0.70 90.0 0 0 703.36 192.00
  Q 673.13 192.00 643.00 192.00
  Q 641.02 192.00 640.25 192.29
  Q 639.76 192.00 638.50 192.00
  Q 511.12 191.97 383.75 192.04
  L 320.00 192.00
  L 320.00 128.77
  A 0.71 0.70 90.0 0 1 320.70 128.06
  L 703.24 128.00
  A 0.79 0.77 89.6 0 1 704.01 128.78
  L 704.24 191.50
  A 0.51 0.50 0.0 0 0 704.75 192.00
  L 767.31 192.00
  A 0.69 0.69 -0.3 0 1 768.00 192.69
  L 768.00 255.48
  A 0.52 0.52 90.0 0 0 768.52 256.00
  L 831.26 256.00
  A 0.74 0.74 -45.0 0 1 832.00 256.74
  L 832.00 383.63
  A 0.37 0.37 -45.0 0 0 832.37 384.00
  L 895.23 384.00
  A 0.71 0.70 0.0 0 1 895.94 384.70
  Q 896.05 479.28 896.00 574.25
  Q 896.00 575.57 896.25 576.04
  Z"
/>
<path fill="#442434" d="
  M 320.00 192.00
  L 320.00 255.19
  A 0.81 0.81 -45.0 0 1 319.19 256.00
  L 256.00 256.00
  L 256.00 192.81
  A 0.81 0.81 -45.0 0 1 256.81 192.00
  L 320.00 192.00
  Z"
/>
<path fill="#d27d2c" d="
  M 320.00 192.00
  L 383.75 192.04
  L 384.04 256.00
  L 383.94 319.44
  A 0.50 0.50 -45.0 0 1 383.44 319.94
  L 320.56 320.06
  A 0.50 0.50 45.0 0 0 320.06 320.56
  L 320.04 384.00
  L 319.96 448.00
  L 256.82 448.00
  A 0.82 0.82 -0.0 0 1 256.00 447.18
  L 256.00 256.00
  L 319.19 256.00
  A 0.81 0.81 -45.0 0 0 320.00 255.19
  L 320.00 192.00
  Z"
/>
<path fill="#dad45e" d="
  M 383.75 192.04
  Q 511.12 191.97 638.50 192.00
  Q 639.76 192.00 640.25 192.29
  L 639.96 256.00
  L 384.04 256.00
  L 383.75 192.04
  Z"
/>
<path fill="#d27d2c" d="
  M 704.21 447.75
  L 703.96 383.75
  L 704.00 320.56
  A 0.56 0.56 90.0 0 0 703.44 320.00
  L 640.69 320.00
  A 0.69 0.69 -0.3 0 1 640.00 319.31
  L 639.96 256.00
  L 640.25 192.29
  Q 641.02 192.00 643.00 192.00
  Q 673.13 192.00 703.36 192.00
  A 0.71 0.70 90.0 0 1 704.06 192.71
  L 704.06 255.41
  A 0.60 0.59 0.0 0 0 704.66 256.00
  L 767.36 256.00
  A 0.64 0.64 -45.0 0 1 768.00 256.64
  L 768.00 447.19
  A 0.80 0.79 -89.6 0 1 767.20 447.99
  L 704.21 447.75
  Z"
/>
<path fill="#442434" d="
  M 256.00 256.00
  L 256.00 447.18
  A 0.82 0.82 0.0 0 0 256.82 448.00
  L 319.96 448.00
  Q 320.02 448.23 320.25 448.29
  L 320.00 512.00
  L 256.82 512.00
  A 0.82 0.82 -0.0 0 1 256.00 511.18
  L 255.94 448.56
  A 0.50 0.50 -45.0 0 0 255.44 448.06
  L 192.56 448.06
  A 0.50 0.50 45.0 0 0 192.06 448.56
  L 192.06 639.75
  Q 192.06 639.82 192.20 640.08
  L 192.29 640.25
  Q 192.00 640.74 192.00 642.00
  Q 192.00 672.00 192.00 703.19
  A 0.81 0.81 0.1 0 0 192.81 704.00
  Q 224.00 704.00 254.00 704.00
  Q 255.26 704.00 255.75 703.71
  L 256.25 704.04
  Q 255.68 735.68 256.18 767.31
  A 0.52 0.52 -0.6 0 0 256.69 767.82
  Q 286.72 768.14 316.75 768.00
  Q 318.94 767.99 319.75 767.71
  Q 320.26 768.01 321.50 768.00
  Q 333.13 767.92 384.00 768.04
  L 384.24 830.51
  A 1.51 1.50 -0.2 0 0 385.75 832.00
  L 640.00 832.00
  L 639.94 895.32
  A 0.69 0.68 -0.0 0 1 639.25 896.00
  L 384.71 895.94
  A 0.71 0.71 -90.0 0 1 384.00 895.23
  L 383.94 832.70
  A 0.71 0.70 0.0 0 0 383.23 832.00
  L 256.25 831.96
  L 255.94 768.56
  A 0.51 0.51 89.4 0 0 255.43 768.06
  L 192.56 768.00
  A 0.56 0.56 -0.2 0 1 192.00 767.44
  L 192.00 704.56
  A 0.56 0.56 0.0 0 0 191.44 704.00
  L 128.56 704.00
  A 0.56 0.56 -0.2 0 1 128.00 703.44
  L 127.94 576.68
  A 0.55 0.38 12.8 0 0 127.56 576.27
  Q 127.38 576.20 127.25 576.04
  L 127.60 576.01
  A 0.43 0.38 87.0 0 0 127.94 575.59
  L 128.00 384.82
  A 0.83 0.82 0.0 0 1 128.83 384.00
  L 191.44 383.94
  A 0.50 0.50 45.0 0 0 191.94 383.44
  L 192.00 256.81
  A 0.81 0.81 -45.0 0 1 192.81 256.00
  L 256.00 256.00
  Z"
/>
<path fill="#442434" d="
  M 384.04 256.00
  L 639.96 256.00
  L 640.00 319.31
  A 0.69 0.69 0.1 0 0 640.69 320.00
  L 703.44 320.00
  A 0.56 0.56 -89.8 0 1 704.00 320.56
  L 703.96 383.75
  L 640.56 384.06
  A 0.51 0.50 -0.6 0 0 640.06 384.56
  L 640.00 448.00
  L 384.56 447.94
  A 0.50 0.49 0.0 0 1 384.06 447.45
  L 384.00 384.92
  A 0.92 0.92 0.0 0 0 383.08 384.00
  L 320.04 384.00
  L 320.06 320.56
  A 0.50 0.50 -45.0 0 1 320.56 320.06
  L 383.44 319.94
  A 0.50 0.50 45.0 0 0 383.94 319.44
  L 384.04 256.00
  Z"
/>
<path fill="#dad45e" d="
  M 703.96 383.75
  L 704.21 447.75
  Q 704.00 447.79 703.96 448.00
  L 640.00 448.00
  L 640.06 384.56
  A 0.51 0.50 -0.6 0 1 640.56 384.06
  L 703.96 383.75
  Z"
/>
<path fill="#dad45e" d="
  M 320.04 384.00
  L 383.08 384.00
  A 0.92 0.92 -45.0 0 1 384.00 384.92
  L 384.06 447.45
  A 0.50 0.49 0.0 0 0 384.56 447.94
  L 640.00 448.00
  L 640.00 511.96
  L 576.25 512.06
  Q 576.18 512.06 575.92 512.20
  L 575.75 512.29
  Q 575.26 512.00 574.00 512.00
  Q 512.00 512.00 450.00 512.00
  Q 448.74 512.00 448.25 512.29
  Q 447.76 512.00 446.50 512.00
  Q 416.50 512.00 386.50 512.00
  Q 384.52 512.00 383.75 511.71
  Q 384.18 481.94 384.01 452.17
  Q 384.01 452.11 384.14 450.33
  Q 384.33 447.67 381.60 447.88
  Q 380.02 448.00 379.89 448.00
  Q 351.95 448.00 324.00 448.00
  Q 321.36 448.00 320.25 448.29
  Q 320.02 448.23 319.96 448.00
  L 320.04 384.00
  Z"
/>
<path fill="#d27d2c" d="
  M 320.00 512.00
  L 320.00 575.43
  A 0.57 0.57 90.0 0 0 320.57 576.00
  L 447.18 576.00
  A 0.84 0.83 -89.7 0 0 448.01 575.17
  L 448.25 512.29
  Q 448.74 512.00 450.00 512.00
  Q 512.00 512.00 574.00 512.00
  Q 575.26 512.00 575.75 512.29
  L 576.04 576.00
  L 576.00 703.19
  A 0.81 0.81 45.0 0 0 576.81 704.00
  L 703.96 704.00
  L 704.00 767.96
  L 640.25 768.06
  Q 640.18 768.06 639.92 768.20
  L 639.75 768.29
  Q 639.26 768.00 638.00 768.00
  Q 511.00 767.97 384.00 768.04
  Q 333.13 767.92 321.50 768.00
  Q 320.26 768.01 319.75 767.71
  L 319.99 704.90
  A 0.90 0.89 0.3 0 0 319.09 704.00
  L 256.25 704.04
  L 255.75 703.71
  L 255.99 640.91
  A 0.89 0.89 0.2 0 0 255.09 640.01
  L 192.29 640.25
  L 192.20 640.08
  Q 192.06 639.82 192.06 639.75
  L 192.06 448.56
  A 0.50 0.50 -45.0 0 1 192.56 448.06
  L 255.44 448.06
  A 0.50 0.50 45.0 0 1 255.94 448.56
  L 256.00 511.18
  A 0.82 0.82 0.0 0 0 256.82 512.00
  L 320.00 512.00
  Z"
/>
<path fill="#d27d2c" d="
  M 383.75 511.71
  Q 383.26 512.00 382.00 512.00
  Q 351.00 512.00 320.00 512.00
  L 320.25 448.29
  Q 321.36 448.00 324.00 448.00
  Q 351.95 448.00 379.89 448.00
  Q 380.02 448.00 381.60 447.88
  Q 384.33 447.67 384.14 450.33
  Q 384.01 452.11 384.01 452.17
  Q 384.18 481.94 383.75 511.71
  Z"
/>
<path fill="#d27d2c" d="
  M 640.00 448.00
  L 703.96 448.00
  L 704.00 511.50
  A 0.50 0.50 -45.0 0 0 704.50 512.00
  L 767.15 512.00
  A 0.85 0.85 45.0 0 0 768.00 511.15
  L 768.00 448.87
  A 0.81 0.80 -90.0 0 1 768.80 448.06
  L 831.15 448.00
  A 0.85 0.85 -45.0 0 1 832.00 448.85
  Q 832.00 543.50 832.00 638.50
  Q 832.00 639.76 831.71 640.25
  L 768.56 640.06
  A 0.50 0.50 45.0 0 0 768.06 640.56
  L 768.00 704.00
  L 704.04 703.75
  Q 703.92 600.37 704.00 577.75
  Q 704.00 576.44 703.75 575.96
  L 703.99 513.16
  A 1.17 1.15 0.2 0 0 702.82 512.00
  L 640.00 511.96
  L 640.00 448.00
  Z"
/>
<path fill="#854c30" d="
  M 383.75 511.71
  Q 384.52 512.00 386.50 512.00
  Q 416.50 512.00 446.50 512.00
  Q 447.76 512.00 448.25 512.29
  L 448.01 575.17
  A 0.84 0.83 -89.7 0 1 447.18 576.00
  L 320.57 576.00
  A 0.57 0.57 -90.0 0 1 320.00 575.43
  L 320.00 512.00
  Q 351.00 512.00 382.00 512.00
  Q 383.26 512.00 383.75 511.71
  Z"
/>
<path fill="#854c30" d="
  M 640.00 511.96
  L 702.82 512.00
  A 1.17 1.15 0.2 0 1 703.99 513.16
  L 703.75 575.96
  L 576.04 576.00
  L 575.75 512.29
  L 575.92 512.20
  Q 576.18 512.06 576.25 512.06
  L 640.00 511.96
  Z"
/>
<path fill="#757161" d="
  M 127.25 576.04
  Q 127.38 576.20 127.56 576.27
  A 0.55 0.38 12.8 0 1 127.94 576.68
  L 128.00 703.44
  A 0.56 0.56 0.0 0 0 128.56 704.00
  L 191.44 704.00
  A 0.56 0.56 -0.2 0 1 192.00 704.56
  L 192.00 767.44
  A 0.56 0.56 0.0 0 0 192.56 768.00
  L 255.43 768.06
  A 0.51 0.51 89.4 0 1 255.94 768.56
  L 256.25 831.96
  L 128.69 832.00
  A 0.69 0.69 -89.7 0 1 128.00 831.31
  L 128.00 768.68
  A 0.68 0.68 -0.0 0 0 127.32 768.00
  L 64.69 768.00
  A 0.69 0.69 -89.7 0 1 64.00 767.31
  L 64.00 576.68
  A 0.68 0.68 -0.1 0 1 64.68 576.00
  L 127.25 576.04
  Z"
/>
<path fill="#dad45e" d="
  M 576.04 576.00
  L 703.75 575.96
  Q 704.00 576.44 704.00 577.75
  Q 703.92 600.37 704.04 703.75
  L 703.96 704.00
  L 576.81 704.00
  A 0.81 0.81 -45.0 0 1 576.00 703.19
  L 576.04 576.00
  Z"
/>
<path fill="#757161" d="
  M 896.25 576.04
  L 959.44 576.06
  A 0.50 0.50 45.0 0 1 959.94 576.56
  L 960.00 767.18
  A 0.83 0.82 0.0 0 1 959.17 768.00
  L 896.56 768.06
  A 0.50 0.50 45.0 0 0 896.06 768.56
  L 896.00 831.18
  A 0.82 0.82 -0.0 0 1 895.18 832.00
  L 768.00 831.96
  L 768.00 768.04
  L 768.25 767.96
  L 831.26 768.00
  A 0.68 0.68 0.0 0 0 831.94 767.32
  L 832.00 704.04
  L 832.25 703.96
  L 895.26 704.00
  A 0.68 0.68 0.0 0 0 895.94 703.32
  Q 896.05 640.72 896.00 577.75
  Q 896.00 576.53 896.25 576.04
  Z"
/>
<path fill="#854c30" d="
  M 255.75 703.71
  Q 255.26 704.00 254.00 704.00
  Q 224.00 704.00 192.81 704.00
  A 0.81 0.81 0.1 0 1 192.00 703.19
  Q 192.00 672.00 192.00 642.00
  Q 192.00 640.74 192.29 640.25
  L 255.09 640.01
  A 0.89 0.89 -0.0 0 1 255.99 640.91
  L 255.75 703.71
  Z"
/>
<path fill="#854c30" d="
  M 831.71 640.25
  Q 832.03 641.42 832.00 644.00
  Q 831.71 666.97 832.25 703.96
  L 832.00 704.04
  L 768.00 704.00
  L 768.06 640.56
  A 0.50 0.50 -45.0 0 1 768.56 640.06
  L 831.71 640.25
  Z"
/>
<path fill="#854c30" d="
  M 704.04 703.75
  L 768.00 704.00
  L 768.25 767.96
  L 768.00 768.04
  L 704.00 767.96
  L 703.96 704.00
  L 704.04 703.75
  Z"
/>
<path fill="#854c30" d="
  M 256.25 704.04
  L 319.09 704.00
  A 0.90 0.89 0.3 0 1 319.99 704.90
  L 319.75 767.71
  Q 318.94 767.99 316.75 768.00
  Q 286.72 768.14 256.69 767.82
  A 0.52 0.52 5.9 0 1 256.18 767.31
  Q 255.68 735.68 256.25 704.04
  Z"
/>
<path fill="#442434" d="
  M 768.00 704.00
  L 832.00 704.04
  L 831.94 767.32
  A 0.68 0.68 -0.0 0 1 831.26 768.00
  L 768.25 767.96
  L 768.00 704.00
  Z"
/>
<path fill="#854c30" d="
  M 384.00 768.04
  Q 511.00 767.97 638.00 768.00
  Q 639.26 768.00 639.75 768.29
  L 640.00 832.00
  L 385.75 832.00
  A 1.51 1.50 -0.2 0 1 384.24 830.51
  L 384.00 768.04
  Z"
/>
<path fill="#442434" d="
  M 704.00 767.96
  L 768.00 768.04
  L 768.00 831.96
  L 640.00 832.00
  L 639.75 768.29
  L 639.92 768.20
  Q 640.18 768.06 640.25 768.06
  L 704.00 767.96
  Z"
/>
</svg>
