<?xml version="1.0" encoding="UTF-8" standalone="no"?>
<!DOCTYPE svg PUBLIC "-//W3C//DTD SVG 1.1//EN" "http://www.w3.org/Graphics/SVG/1.1/DTD/svg11.dtd">
<svg xmlns="http://www.w3.org/2000/svg" version="1.1" viewBox="0 0 1024 1024">
<g stroke-width="2.00" fill="none" stroke-linecap="butt">
<path stroke="#518828" vector-effect="non-scaling-stroke" d="
  M 192.06 0.00
  L 192.06 191.45
  A 0.50 0.49 0.0 0 0 192.56 191.94
  L 255.19 192.00
  A 0.81 0.81 -45.0 0 0 256.00 191.19
  L 255.81 0.00"
/>
<path stroke="#518828" vector-effect="non-scaling-stroke" d="
  M 1024.00 320.31
  Q 1023.52 320.00 1022.25 320.00
  Q 991.41 319.95 960.56 320.06
  A 0.51 0.50 -90.0 0 0 960.06 320.57
  L 960.00 383.33
  A 0.67 0.67 -90.0 0 0 960.67 384.00
  L 1024.00 383.81"
/>
<path stroke="#518828" vector-effect="non-scaling-stroke" d="
  M 767.69 1024.00
  Q 768.00 1023.52 768.00 1022.25
  Q 768.05 991.41 767.94 960.56
  A 0.51 0.50 0.0 0 0 767.43 960.06
  L 704.67 960.00
  A 0.67 0.67 0.0 0 0 704.00 960.67
  L 704.19 1024.00"
/>
<path stroke="#518828" vector-effect="non-scaling-stroke" d="
  M 639.69 1024.00
  Q 640.00 1023.52 640.00 1022.25
  Q 640.05 927.28 639.94 832.70
  A 0.70 0.70 0.0 0 0 639.24 832.00
  L 576.56 832.06
  A 0.50 0.50 45.0 0 0 576.06 832.56
  L 576.19 1024.00"
/>
<path stroke="#518828" vector-effect="non-scaling-stroke" d="
  M 511.69 1024.00
  Q 512.00 1023.52 512.00 1022.25
  Q 512.05 959.28 511.94 896.70
  A 0.70 0.70 90.0 0 0 511.24 896.00
  L 448.56 896.06
  A 0.50 0.50 45.0 0 0 448.06 896.56
  L 448.19 1024.00"
/>
<path stroke="#518828" vector-effect="non-scaling-stroke" d="
  M 0.00 127.69
  Q 0.50 128.01 1.75 128.00
  Q 15.64 127.90 63.44 128.06
  A 0.51 0.50 90.0 0 1 63.94 128.57
  L 64.00 191.44
  A 0.56 0.56 0.0 0 0 64.56 192.00
  L 127.31 192.00
  A 0.69 0.69 45.0 0 0 128.00 191.31
  L 128.00 128.69
  A 0.69 0.69 -45.0 0 0 127.31 128.00
  L 64.68 128.00
  A 0.68 0.68 45.0 0 1 64.00 127.32
  L 64.00 64.69
  A 0.69 0.69 -45.0 0 0 63.31 64.00
  L 0.00 63.94"
/>
<path stroke="#518828" vector-effect="non-scaling-stroke" d="
  M 896.00 256.41
  A 0.41 0.41 0.0 0 0 895.59 256.00
  L 832.41 256.00
  A 0.41 0.41 0.0 0 0 832.00 256.41
  L 832.00 383.59
  A 0.41 0.41 0.0 0 0 832.41 384.00
  L 895.59 384.00
  A 0.41 0.41 0.0 0 0 896.00 383.59
  L 896.00 256.41"
/>
<path stroke="#518828" vector-effect="non-scaling-stroke" d="
  M 320.00 448.41
  A 0.41 0.41 0.0 0 0 319.59 448.00
  L 256.41 448.00
  A 0.41 0.41 0.0 0 0 256.00 448.41
  L 256.00 575.59
  A 0.41 0.41 0.0 0 0 256.41 576.00
  L 319.59 576.00
  A 0.41 0.41 0.0 0 0 320.00 575.59
  L 320.00 448.41"
/>
<path stroke="#518828" vector-effect="non-scaling-stroke" d="
  M 192.00 512.41
  A 0.41 0.41 0.0 0 0 191.59 512.00
  L 128.41 512.00
  A 0.41 0.41 0.0 0 0 128.00 512.41
  L 128.00 575.59
  A 0.41 0.41 0.0 0 0 128.41 576.00
  L 191.59 576.00
  A 0.41 0.41 0.0 0 0 192.00 575.59
  L 192.00 512.41"
/>
<path stroke="#518828" vector-effect="non-scaling-stroke" d="
  M 832.00 896.45
  A 0.45 0.45 0.0 0 0 831.55 896.00
  L 768.45 896.00
  A 0.45 0.45 0.0 0 0 768.00 896.45
  L 768.00 959.55
  A 0.45 0.45 0.0 0 0 768.45 960.00
  L 831.55 960.00
  A 0.45 0.45 0.0 0 0 832.00 959.55
  L 832.00 896.45"
/>
</g>
<path fill="#6daa2c" d="
  M 0.00 0.00
  L 192.06 0.00
  L 192.06 191.45
  A 0.50 0.49 0.0 0 0 192.56 191.94
  L 255.19 192.00
  A 0.81 0.81 -45.0 0 0 256.00 191.19
  L 255.81 0.00
  L 1024.00 0.00
  L 1024.00 320.31
  Q 1023.52 320.00 1022.25 320.00
  Q 991.41 319.95 960.56 320.06
  A 0.51 0.50 -90.0 0 0 960.06 320.57
  L 960.00 383.33
  A 0.67 0.67 -90.0 0 0 960.67 384.00
  L 1024.00 383.81
  L 1024.00 1024.00
  L 767.69 1024.00
  Q 768.00 1023.52 768.00 1022.25
  Q 768.05 991.41 767.94 960.56
  A 0.51 0.50 0.0 0 0 767.43 960.06
  L 704.67 960.00
  A 0.67 0.67 0.0 0 0 704.00 960.67
  L 704.19 1024.00
  L 639.69 1024.00
  Q 640.00 1023.52 640.00 1022.25
  Q 640.05 927.28 639.94 832.70
  A 0.70 0.70 0.0 0 0 639.24 832.00
  L 576.56 832.06
  A 0.50 0.50 45.0 0 0 576.06 832.56
  L 576.19 1024.00
  L 511.69 1024.00
  Q 512.00 1023.52 512.00 1022.25
  Q 512.05 959.28 511.94 896.70
  A 0.70 0.70 90.0 0 0 511.24 896.00
  L 448.56 896.06
  A 0.50 0.50 45.0 0 0 448.06 896.56
  L 448.19 1024.00
  L 0.00 1024.00
  L 0.00 127.69
  Q 0.50 128.01 1.75 128.00
  Q 15.64 127.90 63.44 128.06
  A 0.51 0.50 90.0 0 1 63.94 128.57
  L 64.00 191.44
  A 0.56 0.56 0.0 0 0 64.56 192.00
  L 127.31 192.00
  A 0.69 0.69 45.0 0 0 128.00 191.31
  L 128.00 128.69
  A 0.69 0.69 -45.0 0 0 127.31 128.00
  L 64.68 128.00
  A 0.68 0.68 45.0 0 1 64.00 127.32
  L 64.00 64.69
  A 0.69 0.69 -45.0 0 0 63.31 64.00
  L 0.00 63.94
  L 0.00 0.00
  Z
  M 896.00 256.41
  A 0.41 0.41 0.0 0 0 895.59 256.00
  L 832.41 256.00
  A 0.41 0.41 0.0 0 0 832.00 256.41
  L 832.00 383.59
  A 0.41 0.41 0.0 0 0 832.41 384.00
  L 895.59 384.00
  A 0.41 0.41 0.0 0 0 896.00 383.59
  L 896.00 256.41
  Z
  M 320.00 448.41
  A 0.41 0.41 0.0 0 0 319.59 448.00
  L 256.41 448.00
  A 0.41 0.41 0.0 0 0 256.00 448.41
  L 256.00 575.59
  A 0.41 0.41 0.0 0 0 256.41 576.00
  L 319.59 576.00
  A 0.41 0.41 0.0 0 0 320.00 575.59
  L 320.00 448.41
  Z
  M 192.00 512.41
  A 0.41 0.41 0.0 0 0 191.59 512.00
  L 128.41 512.00
  A 0.41 0.41 0.0 0 0 128.00 512.41
  L 128.00 575.59
  A 0.41 0.41 0.0 0 0 128.41 576.00
  L 191.59 576.00
  A 0.41 0.41 0.0 0 0 192.00 575.59
  L 192.00 512.41
  Z
  M 832.00 896.45
  A 0.45 0.45 0.0 0 0 831.55 896.00
  L 768.45 896.00
  A 0.45 0.45 0.0 0 0 768.00 896.45
  L 768.00 959.55
  A 0.45 0.45 0.0 0 0 768.45 960.00
  L 831.55 960.00
  A 0.45 0.45 0.0 0 0 832.00 959.55
  L 832.00 896.45
  Z"
/>
<path fill="#346524" d="
  M 192.06 0.00
  L 255.81 0.00
  L 256.00 191.19
  A 0.81 0.81 -45.0 0 1 255.19 192.00
  L 192.56 191.94
  A 0.50 0.49 0.0 0 1 192.06 191.45
  L 192.06 0.00
  Z"
/>
<path fill="#346524" d="
  M 0.00 63.94
  L 63.31 64.00
  A 0.69 0.69 45.0 0 1 64.00 64.69
  L 64.00 127.32
  A 0.68 0.68 0.0 0 0 64.68 128.00
  L 127.31 128.00
  A 0.69 0.69 45.0 0 1 128.00 128.69
  L 128.00 191.31
  A 0.69 0.69 -45.0 0 1 127.31 192.00
  L 64.56 192.00
  A 0.56 0.56 -0.0 0 1 64.00 191.44
  L 63.94 128.57
  A 0.51 0.50 90.0 0 0 63.44 128.06
  Q 15.64 127.90 1.75 128.00
  Q 0.50 128.01 0.00 127.69
  L 0.00 63.94
  Z"
/>
<rect fill="#346524" x="832.00" y="256.00" width="64.00" height="128.00" rx="0.41"/>
<path fill="#346524" d="
  M 1024.00 320.31
  L 1024.00 383.81
  L 960.67 384.00
  A 0.67 0.67 -89.9 0 1 960.00 383.33
  L 960.06 320.57
  A 0.51 0.50 -90.0 0 1 960.56 320.06
  Q 991.41 319.95 1022.25 320.00
  Q 1023.52 320.00 1024.00 320.31
  Z"
/>
<rect fill="#346524" x="256.00" y="448.00" width="64.00" height="128.00" rx="0.41"/>
<rect fill="#346524" x="128.00" y="512.00" width="64.00" height="64.00" rx="0.41"/>
<path fill="#346524" d="
  M 639.69 1024.00
  L 576.19 1024.00
  L 576.06 832.56
  A 0.50 0.50 -45.0 0 1 576.56 832.06
  L 639.24 832.00
  A 0.70 0.70 -45.0 0 1 639.94 832.70
  Q 640.05 927.28 640.00 1022.25
  Q 640.00 1023.52 639.69 1024.00
  Z"
/>
<path fill="#346524" d="
  M 511.69 1024.00
  L 448.19 1024.00
  L 448.06 896.56
  A 0.50 0.50 -45.0 0 1 448.56 896.06
  L 511.24 896.00
  A 0.70 0.70 -89.7 0 1 511.94 896.70
  Q 512.05 959.28 512.00 1022.25
  Q 512.00 1023.52 511.69 1024.00
  Z"
/>
<rect fill="#346524" x="768.00" y="896.00" width="64.00" height="64.00" rx="0.45"/>
<path fill="#346524" d="
  M 767.69 1024.00
  L 704.19 1024.00
  L 704.00 960.67
  A 0.67 0.67 45.0 0 1 704.67 960.00
  L 767.43 960.06
  A 0.51 0.50 0.0 0 1 767.94 960.56
  Q 768.05 991.41 768.00 1022.25
  Q 768.00 1023.52 767.69 1024.00
  Z"
/>
</svg>
