<?xml version="1.0" encoding="UTF-8" standalone="no"?>
<!DOCTYPE svg PUBLIC "-//W3C//DTD SVG 1.1//EN" "http://www.w3.org/Graphics/SVG/1.1/DTD/svg11.dtd">
<svg xmlns="http://www.w3.org/2000/svg" version="1.1" viewBox="0 0 601 1024">
<g stroke-width="2.00" fill="none" stroke-linecap="butt">
<path stroke="#120a19" vector-effect="non-scaling-stroke" d="
  M 120.06 0.00
  Q 120.14 0.25 120.75 0.25
  Q 299.75 0.25 478.75 0.25
  Q 480.22 0.25 480.96 0.50"
/>
<path stroke="#735b5b" vector-effect="non-scaling-stroke" d="
  M 541.50 662.46
  L 541.21 602.50"
/>
<path stroke="#374575" vector-effect="non-scaling-stroke" d="
  M 541.21 602.50
  L 541.19 543.23
  A 1.25 1.25 -0.5 0 0 539.92 541.98
  Q 515.75 542.36 492.64 542.26
  Q 492.56 542.26 487.87 542.06
  Q 485.12 541.94 482.26 542.28
  A 1.13 1.13 86.6 0 1 481.00 541.16
  L 481.00 482.78
  A 0.84 0.84 -45.0 0 0 480.16 481.94
  L 420.79 481.75"
/>
<path stroke="#735b5b" vector-effect="non-scaling-stroke" d="
  M 420.79 481.75
  L 420.69 422.69
  A 1.21 1.19 -0.0 0 0 419.48 421.50
  L 360.54 421.25"
/>
<path stroke="#797d79" vector-effect="non-scaling-stroke" d="
  M 360.54 421.25
  L 360.46 361.25"
/>
<path stroke="#77703d" vector-effect="non-scaling-stroke" d="
  M 360.46 361.25
  L 360.50 301.00"
/>
<path stroke="#734524" vector-effect="non-scaling-stroke" d="
  M 360.50 301.00
  L 420.17 301.25
  A 0.58 0.58 45.0 0 1 420.75 301.83
  L 420.79 361.25"
/>
<path stroke="#77703d" vector-effect="non-scaling-stroke" d="
  M 420.79 361.25
  L 420.81 420.94
  A 0.50 0.50 -45.0 0 0 421.31 421.44
  L 480.46 421.69
  A 0.48 0.48 45.0 0 0 480.94 421.21
  L 481.04 361.25"
/>
<path stroke="#2c1828" vector-effect="non-scaling-stroke" d="
  M 481.04 361.25
  Q 509.86 361.82 539.74 361.29
  A 1.47 1.47 -0.4 0 0 541.19 359.82
  L 541.21 301.00"
/>
<path stroke="#4d2c26" vector-effect="non-scaling-stroke" d="
  M 541.21 301.00
  L 541.19 121.45
  A 0.95 0.95 -0.1 0 0 540.24 120.50
  L 481.56 120.50
  A 0.56 0.56 -0.0 0 1 481.00 119.94
  L 481.00 60.93
  A 0.68 0.67 90.0 0 0 480.33 60.25
  L 421.00 60.29"
/>
<path stroke="#734524" vector-effect="non-scaling-stroke" d="
  M 421.00 60.29
  L 179.75 60.29"
/>
<path stroke="#4d2c26" vector-effect="non-scaling-stroke" d="
  M 179.75 60.29
  L 120.31 60.31
  A 0.51 0.50 -89.4 0 0 119.81 60.81
  L 119.51 119.75
  A 0.52 0.51 -89.4 0 1 119.00 120.26
  L 60.97 120.49
  A 1.49 1.46 0.2 0 0 59.49 121.93
  Q 58.91 151.02 59.50 180.79"
/>
<path stroke="#77703d" vector-effect="non-scaling-stroke" d="
  M 59.50 180.79
  L 59.31 240.84
  A 0.18 0.16 14.9 0 0 59.41 240.99
  L 59.50 241.04"
/>
<path stroke="#4d2c26" vector-effect="non-scaling-stroke" d="
  M 59.50 241.04
  L 59.50 360.00
  Q 59.50 360.16 59.28 360.95
  Q 59.21 361.21 59.25 361.50"
/>
<path stroke="#140c1c" vector-effect="non-scaling-stroke" d="
  M 600.06 121.81
  Q 599.95 240.65 600.00 359.49
  Q 600.00 359.77 600.05 360.00
  Q 600.27 361.06 600.27 359.00
  Q 600.39 240.40 600.06 121.81
  Q 600.06 121.31 600.06 121.81"
/>
<path stroke="#ac652e" vector-effect="non-scaling-stroke" d="
  M 179.75 60.29
  Q 180.11 62.78 179.99 65.27
  Q 179.75 70.20 179.75 70.24
  Q 179.75 95.00 179.75 119.81
  A 0.69 0.69 -45.0 0 1 179.06 120.50
  L 120.82 120.50
  A 1.26 1.26 89.6 0 0 119.56 121.78
  Q 120.08 151.32 119.50 180.71"
/>
<path stroke="#b09047" vector-effect="non-scaling-stroke" d="
  M 119.50 180.71
  L 59.50 180.79"
/>
<path stroke="#ac652e" vector-effect="non-scaling-stroke" d="
  M 421.00 60.29
  Q 421.02 60.51 420.93 60.68
  Q 420.69 61.14 420.69 61.30
  L 420.75 119.50
  A 1.02 1.00 -0.0 0 1 419.73 120.50
  L 360.54 120.75"
/>
<path stroke="#d6a945" vector-effect="non-scaling-stroke" d="
  M 360.54 120.75
  L 301.02 120.51
  A 0.77 0.76 -89.6 0 0 300.25 121.28
  L 300.25 180.75"
/>
<path stroke="#d6a945" vector-effect="non-scaling-stroke" d="
  M 300.25 180.75
  L 240.04 180.50"
/>
<path stroke="#ac652e" vector-effect="non-scaling-stroke" d="
  M 240.04 180.50
  Q 240.20 166.62 240.06 152.75
  Q 239.89 136.78 240.18 121.15
  A 0.64 0.64 -89.6 0 0 239.54 120.50
  L 180.30 120.50
  A 0.55 0.55 -0.2 0 0 179.75 121.05
  L 179.82 179.84
  A 0.92 0.91 -0.0 0 1 178.90 180.75
  L 119.75 180.79"
/>
<path stroke="#d6a945" vector-effect="non-scaling-stroke" d="
  M 119.75 180.79
  L 119.50 180.71"
/>
<path stroke="#653832" vector-effect="non-scaling-stroke" d="
  M 541.21 301.00
  Q 511.10 301.61 481.00 301.00"
/>
<path stroke="#653832" vector-effect="non-scaling-stroke" d="
  M 481.00 301.00
  L 480.75 240.96"
/>
<path stroke="#ac652e" vector-effect="non-scaling-stroke" d="
  M 480.75 240.96
  L 481.00 181.31
  A 0.57 0.56 0.0 0 0 480.43 180.75
  Q 451.50 180.75 422.50 180.75
  Q 421.27 180.75 420.79 181.25"
/>
<path stroke="#653832" vector-effect="non-scaling-stroke" d="
  M 420.79 181.25
  Q 420.58 180.73 419.50 180.75
  Q 399.97 181.08 360.54 180.50"
/>
<path stroke="#b09047" vector-effect="non-scaling-stroke" d="
  M 360.54 180.50
  L 360.54 120.75"
/>
<path stroke="#b09047" vector-effect="non-scaling-stroke" d="
  M 240.04 180.50
  L 180.93 180.74
  A 0.94 0.92 -0.6 0 0 180.00 181.67
  Q 180.14 210.38 179.75 238.25
  Q 179.74 239.20 180.04 241.00"
/>
<path stroke="#653832" vector-effect="non-scaling-stroke" d="
  M 180.04 241.00
  L 179.96 241.25"
/>
<path stroke="#ac652e" vector-effect="non-scaling-stroke" d="
  M 179.96 241.25
  Q 146.69 240.73 124.50 241.00
  Q 121.18 241.04 119.54 240.75"
/>
<path stroke="#b09047" vector-effect="non-scaling-stroke" d="
  M 119.54 240.75
  Q 119.70 226.63 119.55 212.50
  Q 119.38 196.64 119.75 180.79"
/>
<path stroke="#8f7c49" vector-effect="non-scaling-stroke" d="
  M 360.54 180.50
  L 360.46 180.75"
/>
<path stroke="#d6a945" vector-effect="non-scaling-stroke" d="
  M 360.46 180.75
  L 300.25 180.75"
/>
<path stroke="#d6a945" vector-effect="non-scaling-stroke" d="
  M 300.25 180.75
  L 300.25 240.96"
/>
<path stroke="#b09047" vector-effect="non-scaling-stroke" d="
  M 300.25 240.96
  L 240.46 241.25"
/>
<path stroke="#8f7c49" vector-effect="non-scaling-stroke" d="
  M 240.46 241.25
  L 180.04 241.00"
/>
<path stroke="#8b5130" vector-effect="non-scaling-stroke" d="
  M 420.79 181.25
  L 420.75 240.24
  A 0.70 0.70 45.0 0 0 421.45 240.94
  L 480.75 240.96"
/>
<path stroke="#8b5130" vector-effect="non-scaling-stroke" d="
  M 481.00 301.00
  Q 451.12 301.61 421.52 301.01
  A 0.79 0.79 0.7 0 1 420.75 300.22
  L 420.69 241.56
  A 0.50 0.50 -45.0 0 0 420.19 241.06
  L 361.00 241.00
  A 0.50 0.50 45.0 0 0 360.50 241.50
  L 360.50 301.00"
/>
<path stroke="#8f7c49" vector-effect="non-scaling-stroke" d="
  M 360.50 301.00
  L 300.00 300.96"
/>
<path stroke="#653832" vector-effect="non-scaling-stroke" d="
  M 300.00 300.96
  Q 300.53 266.30 300.25 243.50
  Q 300.23 241.79 300.50 241.04"
/>
<path stroke="#8b5130" vector-effect="non-scaling-stroke" d="
  M 300.50 241.04
  L 359.69 241.00
  A 0.81 0.81 -45.0 0 0 360.50 240.19
  L 360.46 180.75"
/>
<path stroke="#d6a945" vector-effect="non-scaling-stroke" d="
  M 119.54 240.75
  L 119.46 241.00"
/>
<path stroke="#b09047" vector-effect="non-scaling-stroke" d="
  M 119.46 241.00
  L 59.50 241.04"
/>
<path stroke="#ac652e" vector-effect="non-scaling-stroke" d="
  M 300.50 241.04
  L 300.25 240.96"
/>
<path stroke="#8b5130" vector-effect="non-scaling-stroke" d="
  M 179.96 241.25
  L 179.93 300.44
  A 0.51 0.51 -0.6 0 1 179.43 300.95
  L 125.50 301.21"
/>
<path stroke="#ac652e" vector-effect="non-scaling-stroke" d="
  M 125.50 301.21
  L 120.30 301.07
  A 0.57 0.51 1.2 0 1 119.75 300.56
  Q 119.75 271.62 119.75 243.50
  Q 119.75 241.69 119.46 241.00"
/>
<path stroke="#653832" vector-effect="non-scaling-stroke" d="
  M 125.50 301.21
  L 120.45 301.25
  A 0.95 0.93 0.3 0 0 119.50 302.17
  Q 119.36 331.47 119.69 360.19
  Q 119.12 361.03 120.00 361.46"
/>
<path stroke="#b09047" vector-effect="non-scaling-stroke" d="
  M 120.00 361.46
  L 119.50 361.54"
/>
<path stroke="#4d2c26" vector-effect="non-scaling-stroke" d="
  M 119.50 361.54
  Q 107.21 361.18 94.91 361.33
  Q 88.40 361.40 77.09 361.24
  Q 68.17 361.11 59.25 361.50"
/>
<path stroke="#653832" vector-effect="non-scaling-stroke" d="
  M 240.46 241.25
  Q 239.93 245.44 240.00 251.75
  Q 240.18 267.74 240.00 301.21"
/>
<path stroke="#2c1828" vector-effect="non-scaling-stroke" d="
  M 240.00 301.21
  L 180.79 301.06
  A 0.98 0.97 90.0 0 0 179.82 302.04
  L 179.82 360.55
  Q 179.82 360.66 179.62 360.99
  L 179.50 361.21"
/>
<path stroke="#8f7c49" vector-effect="non-scaling-stroke" d="
  M 179.50 361.21
  Q 178.40 361.50 175.75 361.50
  Q 147.88 361.53 120.00 361.46"
/>
<path stroke="#b09047" vector-effect="non-scaling-stroke" d="
  M 300.00 300.96
  L 240.21 301.25"
/>
<path stroke="#4d2c26" vector-effect="non-scaling-stroke" d="
  M 240.21 301.25
  L 240.00 301.21"
/>
<path stroke="#8b5130" vector-effect="non-scaling-stroke" d="
  M 481.00 301.00
  L 480.96 360.75"
/>
<path stroke="#d6a945" vector-effect="non-scaling-stroke" d="
  M 480.96 360.75
  Q 480.51 361.43 479.94 361.44
  Q 454.68 361.80 420.79 361.25"
/>
<path stroke="#77703d" vector-effect="non-scaling-stroke" d="
  M 240.21 301.25
  Q 240.37 339.91 240.06 358.31
  Q 240.02 360.60 240.29 361.50"
/>
<path stroke="#797d79" vector-effect="non-scaling-stroke" d="
  M 240.29 361.50
  Q 240.23 375.50 240.09 389.50
  Q 240.06 392.40 240.26 405.49
  Q 240.39 413.50 239.96 421.50"
/>
<path stroke="#735b5b" vector-effect="non-scaling-stroke" d="
  M 239.96 421.50
  Q 212.29 421.89 184.63 421.52
  Q 184.55 421.51 182.41 421.77
  Q 181.13 421.92 179.96 421.25"
/>
<path stroke="#77703d" vector-effect="non-scaling-stroke" d="
  M 179.96 421.25
  L 179.93 361.84
  A 0.62 0.36 -81.6 0 0 179.74 361.36
  L 179.50 361.21"
/>
<path stroke="#dce19a" vector-effect="non-scaling-stroke" d="
  M 360.46 361.25
  Q 360.05 361.18 359.69 361.29
  Q 358.99 361.50 358.75 361.50
  Q 305.25 361.61 251.75 361.20
  Q 246.02 361.15 240.29 361.50"
/>
<path stroke="#8f7c49" vector-effect="non-scaling-stroke" d="
  M 481.04 361.25
  L 480.96 360.75"
/>
<path stroke="#77703d" vector-effect="non-scaling-stroke" d="
  M 119.50 361.54
  Q 119.91 368.03 119.77 374.52
  Q 119.56 384.45 119.61 387.49
  Q 119.85 404.07 119.75 421.00
  A 0.50 0.49 0.6 0 0 120.25 421.50
  L 179.50 421.71"
/>
<path stroke="#735b5b" vector-effect="non-scaling-stroke" d="
  M 179.50 421.71
  Q 180.11 422.04 180.02 422.63
  Q 179.94 423.19 179.94 423.25
  Q 179.91 452.50 179.96 481.75"
/>
<path stroke="#4d2c26" vector-effect="non-scaling-stroke" d="
  M 179.96 481.75
  Q 179.75 481.79 179.71 482.00"
/>
<path stroke="#374575" vector-effect="non-scaling-stroke" d="
  M 179.71 482.00
  L 119.54 481.75"
/>
<path stroke="#d6bf7c" vector-effect="non-scaling-stroke" d="
  M 179.96 421.25
  Q 179.63 421.38 179.50 421.71"
/>
<path stroke="#d8ccb8" vector-effect="non-scaling-stroke" d="
  M 360.54 421.25
  Q 360.15 421.56 358.56 421.56
  Q 266.97 421.74 239.96 421.50"
/>
<path stroke="#9694b4" vector-effect="non-scaling-stroke" d="
  M 420.79 481.75
  L 420.71 482.00"
/>
<path stroke="#ac7b65" vector-effect="non-scaling-stroke" d="
  M 420.71 482.00
  Q 390.50 481.38 360.29 482.00"
/>
<path stroke="#d29463" vector-effect="non-scaling-stroke" d="
  M 360.29 482.00
  Q 359.82 481.75 358.50 481.75
  Q 300.50 481.75 242.50 481.75
  Q 240.88 481.75 240.25 482.04"
/>
<path stroke="#ac7b65" vector-effect="non-scaling-stroke" d="
  M 240.25 482.04
  L 179.96 481.75"
/>
<path stroke="#6f657f" vector-effect="non-scaling-stroke" d="
  M 179.71 482.00
  L 180.00 541.40
  A 0.85 0.85 -89.8 0 0 180.85 542.25
  L 237.25 542.21"
/>
<path stroke="#6f657f" vector-effect="non-scaling-stroke" d="
  M 237.25 542.21
  L 419.88 542.25
  A 0.87 0.87 -45.0 0 0 420.75 541.38
  L 420.71 482.00"
/>
<path stroke="#9694b4" vector-effect="non-scaling-stroke" d="
  M 541.21 602.50
  Q 511.12 601.89 481.04 602.50"
/>
<path stroke="#374575" vector-effect="non-scaling-stroke" d="
  M 481.04 602.50
  L 480.96 602.25"
/>
<path stroke="#45599e" vector-effect="non-scaling-stroke" d="
  M 480.96 602.25
  L 480.94 542.81
  A 0.58 0.56 3.4 0 0 480.43 542.25
  Q 477.87 541.95 475.31 542.04
  Q 469.98 542.22 469.69 542.22
  Q 445.50 541.96 421.31 542.31
  A 0.50 0.50 45.0 0 0 420.81 542.81
  L 420.79 602.25"
/>
<path stroke="#374575" vector-effect="non-scaling-stroke" d="
  M 420.79 602.25
  L 420.71 662.75"
/>
<path stroke="#95628b" vector-effect="non-scaling-stroke" d="
  M 420.71 662.75
  L 420.55 662.68
  Q 420.28 662.56 420.28 662.56
  L 360.50 662.79"
/>
<path stroke="#4f5181" vector-effect="non-scaling-stroke" d="
  M 360.50 662.79
  L 240.00 662.79"
/>
<path stroke="#95628b" vector-effect="non-scaling-stroke" d="
  M 240.00 662.79
  L 180.00 662.71"
/>
<path stroke="#374575" vector-effect="non-scaling-stroke" d="
  M 180.00 662.71
  Q 179.39 633.35 179.99 604.00
  Q 180.01 602.98 179.71 602.00"
/>
<path stroke="#45599e" vector-effect="non-scaling-stroke" d="
  M 179.71 602.00
  L 179.93 542.81
  A 0.51 0.50 1.1 0 0 179.43 542.30
  Q 149.47 541.59 119.50 542.25"
/>
<path stroke="#374575" vector-effect="non-scaling-stroke" d="
  M 119.50 542.25
  Q 120.07 512.12 119.46 482.00"
/>
<path stroke="#ac652e" vector-effect="non-scaling-stroke" d="
  M 240.25 482.04
  Q 239.88 510.02 240.27 538.00
  Q 240.29 539.99 240.00 541.96"
/>
<path stroke="#854c30" vector-effect="non-scaling-stroke" d="
  M 240.00 541.96
  L 237.25 542.21"
/>
<path stroke="#ac652e" vector-effect="non-scaling-stroke" d="
  M 360.29 482.00
  L 360.50 541.36
  A 0.65 0.64 0.0 0 1 359.85 542.00
  L 240.00 541.96"
/>
<path stroke="#374575" vector-effect="non-scaling-stroke" d="
  M 119.50 542.25
  L 59.97 542.07
  A 0.53 0.51 -0.0 0 0 59.44 542.58
  L 59.50 602.46"
/>
<path stroke="#735b5b" vector-effect="non-scaling-stroke" d="
  M 59.50 602.46
  L 59.56 661.94
  A 0.51 0.50 90.0 0 0 60.06 662.45
  L 118.94 662.44
  A 0.50 0.50 45.0 0 0 119.44 661.94
  L 119.71 602.75"
/>
<path stroke="#374575" vector-effect="non-scaling-stroke" d="
  M 119.71 602.75
  L 119.79 602.50"
/>
<path stroke="#222045" vector-effect="non-scaling-stroke" d="
  M 119.79 602.50
  Q 145.02 602.50 170.25 602.57
  Q 175.00 602.58 179.71 602.00"
/>
<path stroke="#722932" vector-effect="non-scaling-stroke" d="
  M 180.00 662.71
  Q 179.75 663.18 179.75 664.50
  Q 179.75 712.46 179.75 760.42
  Q 179.75 760.81 180.00 770.58
  Q 180.13 775.67 179.78 780.75
  Q 179.70 781.90 180.04 783.00"
/>
<path stroke="#734524" vector-effect="non-scaling-stroke" d="
  M 180.04 783.00
  L 180.00 843.25"
/>
<path stroke="#453f3f" vector-effect="non-scaling-stroke" d="
  M 180.00 843.25
  L 121.00 843.29"
/>
<path stroke="#322c30" stroke-opacity="0.882" vector-effect="non-scaling-stroke" d="
  M 121.00 843.29
  Q 120.19 843.37 119.54 843.00"
/>
<path stroke="#453f3f" vector-effect="non-scaling-stroke" d="
  M 119.54 843.00
  L 119.46 783.00"
/>
<path stroke="#140c1c" vector-effect="non-scaling-stroke" d="
  M 0.00 662.19
  Q 0.25 662.11 0.25 661.50
  Q 0.25 603.50 0.25 545.50
  Q 0.25 544.17 0.00 543.69"
/>
<path stroke="#45599e" vector-effect="non-scaling-stroke" d="
  M 119.50 542.25
  Q 119.45 553.37 119.59 564.50
  Q 119.66 570.19 119.50 583.49
  Q 119.38 593.00 119.79 602.50"
/>
<path stroke="#9694b4" vector-effect="non-scaling-stroke" d="
  M 119.71 602.75
  Q 89.61 601.75 59.50 602.46"
/>
<path stroke="#222045" vector-effect="non-scaling-stroke" d="
  M 480.96 602.25
  L 420.79 602.25"
/>
<path stroke="#735b5b" vector-effect="non-scaling-stroke" d="
  M 481.04 602.50
  L 481.18 662.06
  A 0.50 0.50 -45.0 0 0 481.68 662.56
  L 541.21 662.75"
/>
<path stroke="#453f3f" vector-effect="non-scaling-stroke" d="
  M 481.04 783.00
  L 481.04 843.00"
/>
<path stroke="#453f3f" vector-effect="non-scaling-stroke" d="
  M 481.04 843.00
  L 481.00 843.25"
/>
<path stroke="#453f3f" vector-effect="non-scaling-stroke" d="
  M 481.00 843.25
  L 421.25 843.19
  Q 421.18 843.19 420.92 843.05
  L 420.75 842.96"
/>
<path stroke="#734524" vector-effect="non-scaling-stroke" d="
  M 420.75 842.96
  L 420.71 783.25"
/>
<path stroke="#722932" vector-effect="non-scaling-stroke" d="
  M 420.71 783.25
  L 420.71 662.75"
/>
<path stroke="#8a353e" vector-effect="non-scaling-stroke" d="
  M 240.00 662.79
  L 240.00 782.79"
/>
<path stroke="#d1623a" vector-effect="non-scaling-stroke" d="
  M 240.00 782.79
  L 180.04 783.00"
/>
<path stroke="#8a353e" vector-effect="non-scaling-stroke" d="
  M 360.50 662.79
  L 360.54 783.00"
/>
<path stroke="#8b5130" vector-effect="non-scaling-stroke" d="
  M 360.54 783.00
  L 360.46 843.00"
/>
<path stroke="#2c1828" vector-effect="non-scaling-stroke" d="
  M 360.46 843.00
  Q 359.98 843.25 358.75 843.25
  Q 299.38 843.28 240.00 843.21"
/>
<path stroke="#8b5130" vector-effect="non-scaling-stroke" d="
  M 240.00 843.21
  Q 240.60 813.00 240.00 782.79"
/>
<path stroke="#d1623a" vector-effect="non-scaling-stroke" d="
  M 420.71 783.25
  L 360.54 783.00"
/>
<path stroke="#734524" vector-effect="non-scaling-stroke" d="
  M 240.00 843.21
  L 180.00 843.25"
/>
<path stroke="#625f51" stroke-opacity="0.769" vector-effect="non-scaling-stroke" d="
  M 59.00 783.29
  Q 59.25 784.02 59.25 787.00
  Q 59.25 813.63 59.25 840.25
  Q 59.25 842.71 59.00 843.21"
/>
<path stroke="#696557" stroke-opacity="0.882" vector-effect="non-scaling-stroke" d="
  M 119.54 843.00
  Q 119.06 843.62 118.32 843.46
  Q 117.30 843.25 117.15 843.25
  Q 88.20 843.24 59.25 843.29"
/>
<path stroke="#6c6859" stroke-opacity="0.549" vector-effect="non-scaling-stroke" d="
  M 59.25 843.29
  L 59.00 843.21"
/>
<path stroke="#a47747" vector-effect="non-scaling-stroke" d="
  M 420.75 842.96
  Q 420.53 843.00 420.50 843.21"
/>
<path stroke="#734524" vector-effect="non-scaling-stroke" d="
  M 420.50 843.21
  L 360.46 843.00"
/>
<path stroke="#757161" vector-effect="non-scaling-stroke" d="
  M 541.04 783.25
  Q 540.75 784.61 540.75 787.00
  Q 540.75 813.00 540.58 839.00
  Q 540.57 840.83 540.99 841.86
  A 0.83 0.83 -11.0 0 1 540.22 843.00
  L 481.04 843.00"
/>
<path stroke="#625f51" stroke-opacity="0.757" vector-effect="non-scaling-stroke" d="
  M 541.50 783.29
  Q 540.88 813.25 541.50 843.21"
/>
<path stroke="#6c6859" stroke-opacity="0.549" vector-effect="non-scaling-stroke" d="
  M 541.50 843.21
  Q 540.92 843.17 540.96 843.75"
/>
<path stroke="#635f52" stroke-opacity="0.773" vector-effect="non-scaling-stroke" d="
  M 540.96 843.75
  Q 540.41 843.72 539.91 843.53
  Q 539.32 843.31 538.91 843.31
  Q 509.95 843.20 481.00 843.25"
/>
<path stroke="#696557" stroke-opacity="0.882" vector-effect="non-scaling-stroke" d="
  M 121.00 843.29
  L 120.22 843.54
  A 0.78 0.70 81.7 0 0 119.74 844.26
  L 119.50 901.24
  A 0.95 0.79 -18.0 0 1 119.05 901.95
  Q 118.32 902.38 118.75 903.21"
/>
<path stroke="#453f3f" vector-effect="non-scaling-stroke" d="
  M 420.50 843.21
  L 420.79 903.25"
/>
<path stroke="#1f1921" stroke-opacity="0.729" vector-effect="non-scaling-stroke" d="
  M 420.79 903.25
  Q 420.62 903.59 420.25 903.54"
/>
<path stroke="#332d31" stroke-opacity="0.886" vector-effect="non-scaling-stroke" d="
  M 420.25 903.54
  L 180.75 903.71"
/>
<path stroke="#241e25" stroke-opacity="0.773" vector-effect="non-scaling-stroke" d="
  M 180.75 903.71
  L 179.79 903.25"
/>
<path stroke="#453f3f" vector-effect="non-scaling-stroke" d="
  M 179.79 903.25
  L 180.00 843.25"
/>
<path stroke="#635f52" stroke-opacity="0.773" vector-effect="non-scaling-stroke" d="
  M 481.00 843.25
  L 481.25 903.21"
/>
<path stroke="#706c5d" stroke-opacity="0.525" vector-effect="non-scaling-stroke" d="
  M 481.25 903.21
  Q 480.88 903.38 480.71 903.75"
/>
<path stroke="#625e51" stroke-opacity="0.729" vector-effect="non-scaling-stroke" d="
  M 480.71 903.75
  Q 452.71 903.23 434.00 903.50
  Q 425.69 903.62 420.79 903.25"
/>
<path stroke="#635f52" stroke-opacity="0.773" vector-effect="non-scaling-stroke" d="
  M 179.79 903.25
  L 119.75 903.54"
/>
</g>
<path fill="#140c1c" d="
  M 119.81 0.00
  L 120.06 0.00
  Q 120.14 0.25 120.75 0.25
  Q 299.75 0.25 478.75 0.25
  Q 480.22 0.25 480.96 0.50
  L 481.00 59.48
  A 0.71 0.71 90.0 0 0 481.71 60.19
  L 540.43 60.25
  A 0.82 0.82 -0.2 0 1 541.25 61.07
  L 541.31 119.94
  A 0.50 0.50 -45.0 0 0 541.81 120.44
  L 599.76 120.50
  A 0.99 0.99 0.5 0 1 600.75 121.49
  L 600.75 360.57
  A 0.68 0.68 -89.9 0 1 600.07 361.25
  L 542.10 361.25
  A 0.85 0.85 45.0 0 0 541.25 362.10
  L 541.25 420.94
  A 0.56 0.56 89.8 0 1 540.69 421.50
  L 481.99 421.50
  A 0.99 0.99 -45.0 0 0 481.00 422.49
  L 481.00 481.48
  A 0.52 0.52 0.0 0 0 481.52 482.00
  L 540.70 482.06
  A 0.50 0.49 90.0 0 1 541.19 482.56
  L 541.25 541.42
  A 0.77 0.76 90.0 0 0 542.01 542.19
  L 600.08 542.25
  A 0.67 0.66 0.0 0 1 600.75 542.91
  L 600.75 661.72
  A 0.78 0.78 -45.0 0 1 599.97 662.50
  L 541.50 662.46
  L 541.21 602.50
  L 541.19 543.23
  A 1.25 1.25 -0.5 0 0 539.92 541.98
  Q 515.75 542.36 492.64 542.26
  Q 492.56 542.26 487.87 542.06
  Q 485.12 541.94 482.26 542.28
  A 1.13 1.13 86.6 0 1 481.00 541.16
  L 481.00 482.78
  A 0.84 0.84 -45.0 0 0 480.16 481.94
  L 420.79 481.75
  L 420.69 422.69
  A 1.21 1.19 -0.0 0 0 419.48 421.50
  L 360.54 421.25
  L 360.46 361.25
  L 360.50 301.00
  L 420.17 301.25
  A 0.58 0.58 45.0 0 1 420.75 301.83
  L 420.79 361.25
  L 420.81 420.94
  A 0.50 0.50 -45.0 0 0 421.31 421.44
  L 480.46 421.69
  A 0.48 0.48 45.0 0 0 480.94 421.21
  L 481.04 361.25
  Q 509.86 361.82 539.74 361.29
  A 1.47 1.47 -0.4 0 0 541.19 359.82
  L 541.21 301.00
  L 541.19 121.45
  A 0.95 0.95 -0.1 0 0 540.24 120.50
  L 481.56 120.50
  A 0.56 0.56 -0.0 0 1 481.00 119.94
  L 481.00 60.93
  A 0.68 0.67 90.0 0 0 480.33 60.25
  L 421.00 60.29
  L 179.75 60.29
  L 120.31 60.31
  A 0.51 0.50 -89.4 0 0 119.81 60.81
  L 119.51 119.75
  A 0.52 0.51 -89.4 0 1 119.00 120.26
  L 60.97 120.49
  A 1.49 1.46 0.2 0 0 59.49 121.93
  Q 58.91 151.02 59.50 180.79
  L 59.31 240.84
  A 0.18 0.16 14.9 0 0 59.41 240.99
  L 59.50 241.04
  L 59.50 360.00
  Q 59.50 360.16 59.28 360.95
  Q 59.21 361.21 59.25 361.50
  Q 24.03 360.96 3.00 361.25
  Q 0.91 361.28 0.00 360.94
  L 0.00 120.69
  L 58.70 120.44
  A 0.51 0.50 -0.6 0 0 59.20 119.94
  L 59.23 61.17
  A 0.92 0.91 90.0 0 1 60.14 60.25
  L 118.68 60.25
  A 1.01 1.01 89.4 0 0 119.69 59.22
  Q 119.21 29.40 119.81 0.00
  Z
  M 600.06 121.81
  Q 599.95 240.65 600.00 359.49
  Q 600.00 359.77 600.05 360.00
  Q 600.27 361.06 600.27 359.00
  Q 600.39 240.40 600.06 121.81
  Q 600.06 121.31 600.06 121.81
  Z"
/>
<path fill="#0f0815" d="
  M 120.06 0.00
  L 480.81 0.00
  L 480.96 0.50
  Q 480.22 0.25 478.75 0.25
  Q 299.75 0.25 120.75 0.25
  Q 120.14 0.25 120.06 0.00
  Z"
/>
<path fill="#854c30" d="
  M 179.75 60.29
  Q 180.11 62.78 179.99 65.27
  Q 179.75 70.20 179.75 70.24
  Q 179.75 95.00 179.75 119.81
  A 0.69 0.69 -45.0 0 1 179.06 120.50
  L 120.82 120.50
  A 1.26 1.26 89.6 0 0 119.56 121.78
  Q 120.08 151.32 119.50 180.71
  L 59.50 180.79
  Q 58.91 151.02 59.49 121.93
  A 1.49 1.46 0.2 0 1 60.97 120.49
  L 119.00 120.26
  A 0.52 0.51 -89.4 0 0 119.51 119.75
  L 119.81 60.81
  A 0.51 0.50 -89.4 0 1 120.31 60.31
  L 179.75 60.29
  Z"
/>
<path fill="#d27d2c" d="
  M 179.75 60.29
  L 421.00 60.29
  Q 421.02 60.51 420.93 60.68
  Q 420.69 61.14 420.69 61.30
  L 420.75 119.50
  A 1.02 1.00 -0.0 0 1 419.73 120.50
  L 360.54 120.75
  L 301.02 120.51
  A 0.77 0.76 -89.6 0 0 300.25 121.28
  L 300.25 180.75
  L 240.04 180.50
  Q 240.20 166.62 240.06 152.75
  Q 239.89 136.78 240.18 121.15
  A 0.64 0.64 -89.6 0 0 239.54 120.50
  L 180.30 120.50
  A 0.55 0.55 -0.2 0 0 179.75 121.05
  L 179.82 179.84
  A 0.92 0.91 -0.0 0 1 178.90 180.75
  L 119.75 180.79
  L 119.50 180.71
  Q 120.08 151.32 119.56 121.78
  A 1.26 1.26 89.6 0 1 120.82 120.50
  L 179.06 120.50
  A 0.69 0.69 45.0 0 0 179.75 119.81
  Q 179.75 95.00 179.75 70.24
  Q 179.75 70.20 179.99 65.27
  Q 180.11 62.78 179.75 60.29
  Z"
/>
<path fill="#854c30" d="
  M 421.00 60.29
  L 480.33 60.25
  A 0.68 0.67 90.0 0 1 481.00 60.93
  L 481.00 119.94
  A 0.56 0.56 0.0 0 0 481.56 120.50
  L 540.24 120.50
  A 0.95 0.95 -0.1 0 1 541.19 121.45
  L 541.21 301.00
  Q 511.10 301.61 481.00 301.00
  L 480.75 240.96
  L 481.00 181.31
  A 0.57 0.56 0.0 0 0 480.43 180.75
  Q 451.50 180.75 422.50 180.75
  Q 421.27 180.75 420.79 181.25
  Q 420.58 180.73 419.50 180.75
  Q 399.97 181.08 360.54 180.50
  L 360.54 120.75
  L 419.73 120.50
  A 1.02 1.00 -0.0 0 0 420.75 119.50
  L 420.69 61.30
  Q 420.69 61.14 420.93 60.68
  Q 421.02 60.51 421.00 60.29
  Z"
/>
<path fill="#854c30" d="
  M 240.04 180.50
  L 180.93 180.74
  A 0.94 0.92 -0.6 0 0 180.00 181.67
  Q 180.14 210.38 179.75 238.25
  Q 179.74 239.20 180.04 241.00
  L 179.96 241.25
  Q 146.69 240.73 124.50 241.00
  Q 121.18 241.04 119.54 240.75
  Q 119.70 226.63 119.55 212.50
  Q 119.38 196.64 119.75 180.79
  L 178.90 180.75
  A 0.92 0.91 0.0 0 0 179.82 179.84
  L 179.75 121.05
  A 0.55 0.55 0.8 0 1 180.30 120.50
  L 239.54 120.50
  A 0.64 0.64 -89.6 0 1 240.18 121.15
  Q 239.89 136.78 240.06 152.75
  Q 240.20 166.62 240.04 180.50
  Z"
/>
<path fill="#dad45e" d="
  M 360.54 120.75
  L 360.54 180.50
  L 360.46 180.75
  L 300.25 180.75
  L 300.25 121.28
  A 0.77 0.76 -89.6 0 1 301.02 120.51
  L 360.54 120.75
  Z"
/>
<path fill="#140c1c" d="
  M 600.06 121.81
  Q 600.39 240.40 600.27 359.00
  Q 600.27 361.06 600.05 360.00
  Q 600.00 359.77 600.00 359.49
  Q 599.95 240.65 600.06 121.81
  Q 600.06 121.31 600.06 121.81
  Z"
/>
<path fill="#dad45e" d="
  M 240.04 180.50
  L 300.25 180.75
  L 300.25 240.96
  L 240.46 241.25
  L 180.04 241.00
  Q 179.74 239.20 179.75 238.25
  Q 180.14 210.38 180.00 181.67
  A 0.94 0.92 -0.6 0 1 180.93 180.74
  L 240.04 180.50
  Z"
/>
<path fill="#442434" d="
  M 360.54 180.50
  Q 399.97 181.08 419.50 180.75
  Q 420.58 180.73 420.79 181.25
  L 420.75 240.24
  A 0.70 0.70 45.0 0 0 421.45 240.94
  L 480.75 240.96
  L 481.00 301.00
  Q 451.12 301.61 421.52 301.01
  A 0.79 0.79 0.7 0 1 420.75 300.22
  L 420.69 241.56
  A 0.50 0.50 -45.0 0 0 420.19 241.06
  L 361.00 241.00
  A 0.50 0.50 45.0 0 0 360.50 241.50
  L 360.50 301.00
  L 300.00 300.96
  Q 300.53 266.30 300.25 243.50
  Q 300.23 241.79 300.50 241.04
  L 359.69 241.00
  A 0.81 0.81 -45.0 0 0 360.50 240.19
  L 360.46 180.75
  L 360.54 180.50
  Z"
/>
<path fill="#dad45e" d="
  M 59.50 180.79
  L 119.50 180.71
  L 119.75 180.79
  Q 119.38 196.64 119.55 212.50
  Q 119.70 226.63 119.54 240.75
  L 119.46 241.00
  L 59.50 241.04
  L 59.41 240.99
  A 0.18 0.16 14.9 0 1 59.31 240.84
  L 59.50 180.79
  Z"
/>
<path fill="#d27d2c" d="
  M 300.25 180.75
  L 360.46 180.75
  L 360.50 240.19
  A 0.81 0.81 -45.0 0 1 359.69 241.00
  L 300.50 241.04
  L 300.25 240.96
  L 300.25 180.75
  Z"
/>
<path fill="#d27d2c" d="
  M 480.75 240.96
  L 421.45 240.94
  A 0.70 0.70 -45.0 0 1 420.75 240.24
  L 420.79 181.25
  Q 421.27 180.75 422.50 180.75
  Q 451.50 180.75 480.43 180.75
  A 0.57 0.56 0.0 0 1 481.00 181.31
  L 480.75 240.96
  Z"
/>
<path fill="#d27d2c" d="
  M 119.54 240.75
  Q 121.18 241.04 124.50 241.00
  Q 146.69 240.73 179.96 241.25
  L 179.93 300.44
  A 0.51 0.51 -0.6 0 1 179.43 300.95
  L 125.50 301.21
  L 120.30 301.07
  A 0.57 0.51 1.2 0 1 119.75 300.56
  Q 119.75 271.62 119.75 243.50
  Q 119.75 241.69 119.46 241.00
  L 119.54 240.75
  Z"
/>
<path fill="#854c30" d="
  M 59.50 241.04
  L 119.46 241.00
  Q 119.75 241.69 119.75 243.50
  Q 119.75 271.62 119.75 300.56
  A 0.57 0.51 1.2 0 0 120.30 301.07
  L 125.50 301.21
  L 120.45 301.25
  A 0.95 0.93 0.3 0 0 119.50 302.17
  Q 119.36 331.47 119.69 360.19
  Q 119.12 361.03 120.00 361.46
  L 119.50 361.54
  Q 107.21 361.18 94.91 361.33
  Q 88.40 361.40 77.09 361.24
  Q 68.17 361.11 59.25 361.50
  Q 59.21 361.21 59.28 360.95
  Q 59.50 360.16 59.50 360.00
  L 59.50 241.04
  Z"
/>
<path fill="#442434" d="
  M 180.04 241.00
  L 240.46 241.25
  Q 239.93 245.44 240.00 251.75
  Q 240.18 267.74 240.00 301.21
  L 180.79 301.06
  A 0.98 0.97 90.0 0 0 179.82 302.04
  L 179.82 360.55
  Q 179.82 360.66 179.62 360.99
  L 179.50 361.21
  Q 178.40 361.50 175.75 361.50
  Q 147.88 361.53 120.00 361.46
  Q 119.12 361.03 119.69 360.19
  Q 119.36 331.47 119.50 302.17
  A 0.95 0.93 0.3 0 1 120.45 301.25
  L 125.50 301.21
  L 179.43 300.95
  A 0.51 0.51 -0.6 0 0 179.93 300.44
  L 179.96 241.25
  L 180.04 241.00
  Z"
/>
<path fill="#854c30" d="
  M 300.25 240.96
  L 300.50 241.04
  Q 300.23 241.79 300.25 243.50
  Q 300.53 266.30 300.00 300.96
  L 240.21 301.25
  L 240.00 301.21
  Q 240.18 267.74 240.00 251.75
  Q 239.93 245.44 240.46 241.25
  L 300.25 240.96
  Z"
/>
<path fill="#d27d2c" d="
  M 481.00 301.00
  L 480.96 360.75
  Q 480.51 361.43 479.94 361.44
  Q 454.68 361.80 420.79 361.25
  L 420.75 301.83
  A 0.58 0.58 -45.0 0 0 420.17 301.25
  L 360.50 301.00
  L 360.50 241.50
  A 0.50 0.50 -45.0 0 1 361.00 241.00
  L 420.19 241.06
  A 0.50 0.50 45.0 0 1 420.69 241.56
  L 420.75 300.22
  A 0.79 0.79 0.7 0 0 421.52 301.01
  Q 451.12 301.61 481.00 301.00
  Z"
/>
<path fill="#140c1c" d="
  M 240.00 301.21
  L 240.21 301.25
  Q 240.37 339.91 240.06 358.31
  Q 240.02 360.60 240.29 361.50
  Q 240.23 375.50 240.09 389.50
  Q 240.06 392.40 240.26 405.49
  Q 240.39 413.50 239.96 421.50
  Q 212.29 421.89 184.63 421.52
  Q 184.55 421.51 182.41 421.77
  Q 181.13 421.92 179.96 421.25
  L 179.93 361.84
  A 0.62 0.36 -81.6 0 0 179.74 361.36
  L 179.50 361.21
  L 179.62 360.99
  Q 179.82 360.66 179.82 360.55
  L 179.82 302.04
  A 0.98 0.97 -90.0 0 1 180.79 301.06
  L 240.00 301.21
  Z"
/>
<path fill="#dad45e" d="
  M 300.00 300.96
  L 360.50 301.00
  L 360.46 361.25
  Q 360.05 361.18 359.69 361.29
  Q 358.99 361.50 358.75 361.50
  Q 305.25 361.61 251.75 361.20
  Q 246.02 361.15 240.29 361.50
  Q 240.02 360.60 240.06 358.31
  Q 240.37 339.91 240.21 301.25
  L 300.00 300.96
  Z"
/>
<path fill="#442434" d="
  M 481.00 301.00
  Q 511.10 301.61 541.21 301.00
  L 541.19 359.82
  A 1.47 1.47 -0.4 0 1 539.74 361.29
  Q 509.86 361.82 481.04 361.25
  L 480.96 360.75
  L 481.00 301.00
  Z"
/>
<path fill="#dad45e" d="
  M 480.96 360.75
  L 481.04 361.25
  L 480.94 421.21
  A 0.48 0.48 -45.0 0 1 480.46 421.69
  L 421.31 421.44
  A 0.50 0.50 45.0 0 1 420.81 420.94
  L 420.79 361.25
  Q 454.68 361.80 479.94 361.44
  Q 480.51 361.43 480.96 360.75
  Z"
/>
<path fill="#140c1c" d="
  M 119.50 361.54
  Q 119.91 368.03 119.77 374.52
  Q 119.56 384.45 119.61 387.49
  Q 119.85 404.07 119.75 421.00
  A 0.50 0.49 0.6 0 0 120.25 421.50
  L 179.50 421.71
  Q 180.11 422.04 180.02 422.63
  Q 179.94 423.19 179.94 423.25
  Q 179.91 452.50 179.96 481.75
  Q 179.75 481.79 179.71 482.00
  L 119.54 481.75
  L 119.56 422.26
  A 0.76 0.76 -0.3 0 0 118.80 421.50
  L 60.51 421.44
  A 1.33 1.30 90.0 0 1 59.21 420.11
  L 59.25 361.50
  Q 68.17 361.11 77.09 361.24
  Q 88.40 361.40 94.91 361.33
  Q 107.21 361.18 119.50 361.54
  Z"
/>
<path fill="#dad45e" d="
  M 179.50 361.21
  L 179.74 361.36
  A 0.62 0.36 -81.6 0 1 179.93 361.84
  L 179.96 421.25
  Q 179.63 421.38 179.50 421.71
  L 120.25 421.50
  A 0.50 0.49 0.6 0 1 119.75 421.00
  Q 119.85 404.07 119.61 387.49
  Q 119.56 384.45 119.77 374.52
  Q 119.91 368.03 119.50 361.54
  L 120.00 361.46
  Q 147.88 361.53 175.75 361.50
  Q 178.40 361.50 179.50 361.21
  Z"
/>
<path fill="#deeed6" d="
  M 360.46 361.25
  L 360.54 421.25
  Q 360.15 421.56 358.56 421.56
  Q 266.97 421.74 239.96 421.50
  Q 240.39 413.50 240.26 405.49
  Q 240.06 392.40 240.09 389.50
  Q 240.23 375.50 240.29 361.50
  Q 246.02 361.15 251.75 361.20
  Q 305.25 361.61 358.75 361.50
  Q 358.99 361.50 359.69 361.29
  Q 360.05 361.18 360.46 361.25
  Z"
/>
<path fill="#d2aa99" d="
  M 179.96 421.25
  Q 181.13 421.92 182.41 421.77
  Q 184.55 421.51 184.63 421.52
  Q 212.29 421.89 239.96 421.50
  Q 266.97 421.74 358.56 421.56
  Q 360.15 421.56 360.54 421.25
  L 419.48 421.50
  A 1.21 1.19 -0.0 0 1 420.69 422.69
  L 420.79 481.75
  L 420.71 482.00
  Q 390.50 481.38 360.29 482.00
  Q 359.82 481.75 358.50 481.75
  Q 300.50 481.75 242.50 481.75
  Q 240.88 481.75 240.25 482.04
  L 179.96 481.75
  Q 179.91 452.50 179.94 423.25
  Q 179.94 423.19 180.02 422.63
  Q 180.11 422.04 179.50 421.71
  Q 179.63 421.38 179.96 421.25
  Z"
/>
<path fill="#597dce" d="
  M 119.54 481.75
  L 179.71 482.00
  L 180.00 541.40
  A 0.85 0.85 -89.8 0 0 180.85 542.25
  L 237.25 542.21
  L 419.88 542.25
  A 0.87 0.87 -45.0 0 0 420.75 541.38
  L 420.71 482.00
  L 420.79 481.75
  L 480.16 481.94
  A 0.84 0.84 -45.0 0 1 481.00 482.78
  L 481.00 541.16
  A 1.13 1.13 86.6 0 0 482.26 542.28
  Q 485.12 541.94 487.87 542.06
  Q 492.56 542.26 492.64 542.26
  Q 515.75 542.36 539.92 541.98
  A 1.25 1.25 -0.5 0 1 541.19 543.23
  L 541.21 602.50
  Q 511.12 601.89 481.04 602.50
  L 480.96 602.25
  L 480.94 542.81
  A 0.58 0.56 3.4 0 0 480.43 542.25
  Q 477.87 541.95 475.31 542.04
  Q 469.98 542.22 469.69 542.22
  Q 445.50 541.96 421.31 542.31
  A 0.50 0.50 45.0 0 0 420.81 542.81
  L 420.79 602.25
  L 420.71 662.75
  L 420.55 662.68
  Q 420.28 662.56 420.28 662.56
  L 360.50 662.79
  L 240.00 662.79
  L 180.00 662.71
  Q 179.39 633.35 179.99 604.00
  Q 180.01 602.98 179.71 602.00
  L 179.93 542.81
  A 0.51 0.50 1.1 0 0 179.43 542.30
  Q 149.47 541.59 119.50 542.25
  Q 120.07 512.12 119.46 482.00
  L 119.54 481.75
  Z"
/>
<path fill="#854c30" d="
  M 179.96 481.75
  L 240.25 482.04
  Q 239.88 510.02 240.27 538.00
  Q 240.29 539.99 240.00 541.96
  L 237.25 542.21
  L 180.85 542.25
  A 0.85 0.85 -90.0 0 1 180.00 541.40
  L 179.71 482.00
  Q 179.75 481.79 179.96 481.75
  Z"
/>
<path fill="#d27d2c" d="
  M 360.29 482.00
  L 360.50 541.36
  A 0.65 0.64 0.0 0 1 359.85 542.00
  L 240.00 541.96
  Q 240.29 539.99 240.27 538.00
  Q 239.88 510.02 240.25 482.04
  Q 240.88 481.75 242.50 481.75
  Q 300.50 481.75 358.50 481.75
  Q 359.82 481.75 360.29 482.00
  Z"
/>
<path fill="#854c30" d="
  M 420.71 482.00
  L 420.75 541.38
  A 0.87 0.87 45.0 0 1 419.88 542.25
  L 237.25 542.21
  L 240.00 541.96
  L 359.85 542.00
  A 0.65 0.64 -0.0 0 0 360.50 541.36
  L 360.29 482.00
  Q 390.50 481.38 420.71 482.00
  Z"
/>
<path fill="#140c1c" d="
  M 119.46 482.00
  Q 120.07 512.12 119.50 542.25
  L 59.97 542.07
  A 0.53 0.51 -0.0 0 0 59.44 542.58
  L 59.50 602.46
  L 59.56 661.94
  A 0.51 0.50 90.0 0 0 60.06 662.45
  L 118.94 662.44
  A 0.50 0.50 45.0 0 0 119.44 661.94
  L 119.71 602.75
  L 119.79 602.50
  Q 145.02 602.50 170.25 602.57
  Q 175.00 602.58 179.71 602.00
  Q 180.01 602.98 179.99 604.00
  Q 179.39 633.35 180.00 662.71
  Q 179.75 663.18 179.75 664.50
  Q 179.75 712.46 179.75 760.42
  Q 179.75 760.81 180.00 770.58
  Q 180.13 775.67 179.78 780.75
  Q 179.70 781.90 180.04 783.00
  L 180.00 843.25
  L 121.00 843.29
  Q 120.19 843.37 119.54 843.00
  L 119.46 783.00
  Q 119.71 770.50 119.57 758.00
  Q 119.37 740.65 119.68 723.89
  A 1.13 1.12 0.5 0 0 118.55 722.75
  L 59.74 722.75
  A 0.43 0.42 -90.0 0 1 59.32 722.32
  L 59.23 663.29
  A 0.81 0.79 0.0 0 0 58.42 662.50
  L 0.00 662.44
  L 0.00 662.19
  Q 0.25 662.11 0.25 661.50
  Q 0.25 603.50 0.25 545.50
  Q 0.25 544.17 0.00 543.69
  L 0.00 542.44
  Q 0.53 541.89 1.20 542.03
  Q 2.23 542.25 2.33 542.25
  Q 30.17 542.25 58.56 542.25
  A 0.74 0.73 0.0 0 0 59.30 541.52
  L 59.21 483.16
  A 1.10 1.08 -90.0 0 1 60.29 482.06
  L 119.46 482.00
  Z"
/>
<path fill="#597dce" d="
  M 119.50 542.25
  Q 119.45 553.37 119.59 564.50
  Q 119.66 570.19 119.50 583.49
  Q 119.38 593.00 119.79 602.50
  L 119.71 602.75
  Q 89.61 601.75 59.50 602.46
  L 59.44 542.58
  A 0.53 0.51 -0.0 0 1 59.97 542.07
  L 119.50 542.25
  Z"
/>
<path fill="#30346d" d="
  M 179.71 602.00
  Q 175.00 602.58 170.25 602.57
  Q 145.02 602.50 119.79 602.50
  Q 119.38 593.00 119.50 583.49
  Q 119.66 570.19 119.59 564.50
  Q 119.45 553.37 119.50 542.25
  Q 149.47 541.59 179.43 542.30
  A 0.51 0.50 1.1 0 1 179.93 542.81
  L 179.71 602.00
  Z"
/>
<path fill="#30346d" d="
  M 480.96 602.25
  L 420.79 602.25
  L 420.81 542.81
  A 0.50 0.50 -45.0 0 1 421.31 542.31
  Q 445.50 541.96 469.69 542.22
  Q 469.98 542.22 475.31 542.04
  Q 477.87 541.95 480.43 542.25
  A 0.58 0.56 3.4 0 1 480.94 542.81
  L 480.96 602.25
  Z"
/>
<path fill="#140c1c" d="
  M 0.00 543.69
  Q 0.25 544.17 0.25 545.50
  Q 0.25 603.50 0.25 661.50
  Q 0.25 662.11 0.00 662.19
  L 0.00 543.69
  Z"
/>
<path fill="#d2aa99" d="
  M 119.71 602.75
  L 119.44 661.94
  A 0.50 0.50 -45.0 0 1 118.94 662.44
  L 60.06 662.45
  A 0.51 0.50 90.0 0 1 59.56 661.94
  L 59.50 602.46
  Q 89.61 601.75 119.71 602.75
  Z"
/>
<path fill="#140c1c" d="
  M 420.79 602.25
  L 480.96 602.25
  L 481.04 602.50
  L 481.18 662.06
  A 0.50 0.50 -45.0 0 0 481.68 662.56
  L 541.21 662.75
  L 541.25 722.30
  A 0.52 0.51 0.0 0 1 540.73 722.81
  L 481.73 722.75
  A 0.67 0.67 0.0 0 0 481.06 723.42
  L 481.04 783.00
  L 481.04 843.00
  L 481.00 843.25
  L 421.25 843.19
  Q 421.18 843.19 420.92 843.05
  L 420.75 842.96
  L 420.71 783.25
  L 420.71 662.75
  L 420.79 602.25
  Z"
/>
<path fill="#d2aa99" d="
  M 541.21 602.50
  L 541.50 662.46
  Q 541.27 662.52 541.21 662.75
  L 481.68 662.56
  A 0.50 0.50 45.0 0 1 481.18 662.06
  L 481.04 602.50
  Q 511.12 601.89 541.21 602.50
  Z"
/>
<path fill="#d04648" d="
  M 240.00 662.79
  L 240.00 782.79
  L 180.04 783.00
  Q 179.70 781.90 179.78 780.75
  Q 180.13 775.67 180.00 770.58
  Q 179.75 760.81 179.75 760.42
  Q 179.75 712.46 179.75 664.50
  Q 179.75 663.18 180.00 662.71
  L 240.00 662.79
  Z"
/>
<path fill="#442434" d="
  M 360.50 662.79
  L 360.54 783.00
  L 360.46 843.00
  Q 359.98 843.25 358.75 843.25
  Q 299.38 843.28 240.00 843.21
  Q 240.60 813.00 240.00 782.79
  L 240.00 662.79
  L 360.50 662.79
  Z"
/>
<path fill="#d04648" d="
  M 420.71 662.75
  L 420.71 783.25
  L 360.54 783.00
  L 360.50 662.79
  L 420.28 662.56
  Q 420.28 662.56 420.55 662.68
  L 420.71 662.75
  Z"
/>
<path fill="#d27d2c" d="
  M 240.00 782.79
  Q 240.60 813.00 240.00 843.21
  L 180.00 843.25
  L 180.04 783.00
  L 240.00 782.79
  Z"
/>
<path fill="#3f3c34" fill-opacity="0.533" d="
  M 59.00 783.29
  Q 59.25 784.02 59.25 787.00
  Q 59.25 813.63 59.25 840.25
  Q 59.25 842.71 59.00 843.21
  L 0.29 843.00
  L 0.00 839.94
  L 0.00 813.69
  Q 0.63 805.31 0.00 796.94
  L 0.00 783.44
  Q 0.55 783.00 1.25 783.00
  Q 28.25 783.00 55.25 783.00
  Q 57.64 783.00 59.00 783.29
  Z
  M 2.19 809.10
  Q 1.46 809.10 1.25 810.00
  Q 0.70 812.32 3.19 813.31
  Q 6.47 814.62 9.17 812.62
  Q 9.57 812.33 10.06 812.21
  Q 13.14 811.48 11.19 808.81
  Q 10.72 808.17 9.56 807.99
  A 1.17 1.12 -12.9 0 1 8.79 807.53
  Q 7.01 805.03 4.63 806.92
  Q 4.31 807.18 3.76 807.30
  Q 2.80 807.52 2.70 808.68
  A 0.52 0.46 2.4 0 1 2.19 809.10
  Z"
/>
<path fill="#757161" d="
  M 119.46 783.00
  L 119.54 843.00
  Q 119.06 843.62 118.32 843.46
  Q 117.30 843.25 117.15 843.25
  Q 88.20 843.24 59.25 843.29
  L 59.00 843.21
  Q 59.25 842.71 59.25 840.25
  Q 59.25 813.63 59.25 787.00
  Q 59.25 784.02 59.00 783.29
  Q 59.15 783.17 59.32 783.09
  Q 59.48 783.00 59.69 783.00
  Q 89.57 783.00 119.46 783.00
  Z"
/>
<path fill="#d27d2c" d="
  M 360.54 783.00
  L 420.71 783.25
  L 420.75 842.96
  Q 420.53 843.00 420.50 843.21
  L 360.46 843.00
  L 360.54 783.00
  Z"
/>
<path fill="#757161" d="
  M 481.04 783.00
  L 541.04 783.25
  Q 540.75 784.61 540.75 787.00
  Q 540.75 813.00 540.58 839.00
  Q 540.57 840.83 540.99 841.86
  A 0.83 0.83 -11.0 0 1 540.22 843.00
  L 481.04 843.00
  L 481.04 783.00
  Z"
/>
<path fill="#193e12" fill-opacity="0.514" d="
  M 600.54 813.25
  L 600.07 816.00
  Q 600.00 816.38 600.01 816.01
  Q 600.01 814.32 599.81 814.95
  A 0.40 0.39 22.2 0 1 599.25 815.18
  Q 597.48 814.27 595.71 815.33
  Q 595.04 815.74 594.58 815.85
  Q 592.08 816.48 593.30 815.38
  Q 593.68 815.04 593.20 814.93
  Q 590.82 814.39 588.59 815.48
  Q 588.32 815.61 587.75 815.73
  Q 587.10 815.87 587.10 816.44
  A 0.45 0.37 -88.2 0 1 586.70 816.89
  Q 584.33 816.69 581.99 817.18
  Q 578.75 817.86 577.84 815.59
  Q 577.77 815.40 577.13 811.90
  Q 576.46 808.18 576.29 804.39
  Q 576.22 802.89 575.92 802.16
  Q 575.03 800.04 573.10 801.89
  A 1.45 0.98 78.0 0 0 572.75 802.75
  Q 572.66 803.82 571.87 803.54
  A 1.12 0.92 -44.7 0 0 571.03 803.62
  L 570.17 804.04
  A 0.56 0.48 64.5 0 1 569.48 803.74
  Q 567.72 799.90 568.00 797.25
  Q 568.41 793.35 566.50 790.00
  Q 565.20 787.72 566.50 786.75
  Q 568.31 785.40 567.23 783.71
  A 1.00 0.86 -14.2 0 0 566.43 783.31
  L 543.50 783.21
  L 599.41 783.27
  A 1.08 1.08 -45.0 0 1 600.49 784.35
  L 600.54 813.25
  Z"
/>
<path fill="#757161" d="
  M 541.04 783.25
  L 541.50 783.29
  Q 540.88 813.25 541.50 843.21
  Q 540.92 843.17 540.96 843.75
  Q 540.41 843.72 539.91 843.53
  Q 539.32 843.31 538.91 843.31
  Q 509.95 843.20 481.00 843.25
  L 481.04 843.00
  L 540.22 843.00
  A 0.83 0.83 -11.0 0 0 540.99 841.86
  Q 540.57 840.83 540.58 839.00
  Q 540.75 813.00 540.75 787.00
  Q 540.75 784.61 541.04 783.25
  Z"
/>
<path fill="#3e3c33" fill-opacity="0.514" d="
  M 541.50 783.29
  L 543.50 783.21
  L 566.43 783.31
  A 1.00 0.86 -14.2 0 1 567.23 783.71
  Q 568.31 785.40 566.50 786.75
  Q 565.20 787.72 566.50 790.00
  Q 568.41 793.35 568.00 797.25
  Q 567.72 799.90 569.48 803.74
  A 0.56 0.48 64.5 0 0 570.17 804.04
  L 571.03 803.62
  A 1.12 0.92 -44.7 0 1 571.87 803.54
  Q 572.66 803.82 572.75 802.75
  A 1.45 0.98 78.0 0 1 573.10 801.89
  Q 575.03 800.04 575.92 802.16
  Q 576.22 802.89 576.29 804.39
  Q 576.46 808.18 577.13 811.90
  Q 577.77 815.40 577.84 815.59
  Q 578.75 817.86 581.99 817.18
  Q 584.33 816.69 586.70 816.89
  A 0.45 0.37 -88.2 0 0 587.10 816.44
  Q 587.10 815.87 587.75 815.73
  Q 588.32 815.61 588.59 815.48
  Q 590.82 814.39 593.20 814.93
  Q 593.68 815.04 593.30 815.38
  Q 592.08 816.48 594.58 815.85
  Q 595.04 815.74 595.71 815.33
  Q 597.48 814.27 599.25 815.18
  A 0.40 0.39 22.2 0 0 599.81 814.95
  Q 600.01 814.32 600.01 816.01
  Q 600.00 816.38 600.07 816.00
  L 600.54 813.25
  L 600.69 842.65
  A 0.53 0.31 -22.4 0 1 600.42 843.01
  Q 600.29 843.09 600.21 843.25
  L 541.50 843.21
  Q 540.88 813.25 541.50 783.29
  Z"
/>
<path fill="#0c0c09" fill-opacity="0.098" d="
  M 0.00 796.94
  Q 0.63 805.31 0.00 813.69
  L 0.00 796.94
  Z"
/>
<path fill="#3f3c34" fill-opacity="0.533" d="
  M 2.70 808.68
  Q 2.80 807.52 3.76 807.30
  Q 4.31 807.18 4.63 806.92
  Q 7.01 805.03 8.79 807.53
  A 1.17 1.12 -12.9 0 0 9.56 807.99
  Q 10.72 808.17 11.19 808.81
  Q 13.14 811.48 10.06 812.21
  Q 9.57 812.33 9.17 812.62
  Q 6.47 814.62 3.19 813.31
  Q 0.70 812.32 1.25 810.00
  Q 1.46 809.10 2.19 809.10
  A 0.52 0.46 2.4 0 0 2.70 808.68
  Z"
/>
<path fill="#0c0c09" fill-opacity="0.098" d="
  M 0.29 843.00
  L 59.00 843.21
  L 59.25 843.29
  Q 59.79 873.15 59.21 903.00
  L 0.82 903.44
  A 0.51 0.50 -0.0 0 1 0.31 902.94
  L 0.29 843.00
  Z"
/>
<path fill="#5a564b" fill-opacity="0.761" d="
  M 119.54 843.00
  Q 120.19 843.37 121.00 843.29
  L 120.22 843.54
  A 0.78 0.70 81.7 0 0 119.74 844.26
  L 119.50 901.24
  A 0.95 0.79 -18.0 0 1 119.05 901.95
  Q 118.32 902.38 118.75 903.21
  Q 89.35 903.83 59.94 903.36
  Q 59.46 903.35 59.21 903.00
  Q 59.79 873.15 59.25 843.29
  Q 88.20 843.24 117.15 843.25
  Q 117.30 843.25 118.32 843.46
  Q 119.06 843.62 119.54 843.00
  Z"
/>
<path fill="#140c1c" d="
  M 360.46 843.00
  L 420.50 843.21
  L 420.79 903.25
  Q 420.62 903.59 420.25 903.54
  L 180.75 903.71
  L 179.79 903.25
  L 180.00 843.25
  L 240.00 843.21
  Q 299.38 843.28 358.75 843.25
  Q 359.98 843.25 360.46 843.00
  Z"
/>
<path fill="#757161" d="
  M 420.75 842.96
  L 420.92 843.05
  Q 421.18 843.19 421.25 843.19
  L 481.00 843.25
  L 481.25 903.21
  Q 480.88 903.38 480.71 903.75
  Q 452.71 903.23 434.00 903.50
  Q 425.69 903.62 420.79 903.25
  L 420.50 843.21
  Q 420.53 843.00 420.75 842.96
  Z"
/>
<path fill="#757161" d="
  M 121.00 843.29
  L 180.00 843.25
  L 179.79 903.25
  L 119.75 903.54
  Q 119.33 903.18 118.75 903.21
  Q 118.32 902.38 119.05 901.95
  A 0.95 0.79 -18.0 0 0 119.50 901.24
  L 119.74 844.26
  A 0.78 0.70 81.7 0 1 120.22 843.54
  L 121.00 843.29
  Z"
/>
<path fill="#413f36" fill-opacity="0.541" d="
  M 481.00 843.25
  Q 509.95 843.20 538.91 843.31
  Q 539.32 843.31 539.91 843.53
  Q 540.41 843.72 540.96 843.75
  Q 541.44 849.93 541.00 860.00
  Q 540.44 872.86 541.29 903.00
  Q 541.12 903.37 540.75 903.54
  Q 498.24 903.42 487.25 903.50
  Q 483.29 903.53 481.25 903.21
  L 481.00 843.25
  Z"
/>
<path fill="#0c0c09" fill-opacity="0.098" d="
  M 541.50 843.21
  L 600.21 843.25
  Q 600.65 850.12 600.59 857.00
  Q 600.38 878.59 600.70 900.92
  Q 600.74 903.45 598.21 903.43
  L 541.29 903.00
  Q 540.44 872.86 541.00 860.00
  Q 541.44 849.93 540.96 843.75
  Q 540.92 843.17 541.50 843.21
  Z"
/>
<path fill="#413f36" fill-opacity="0.541" d="
  M 179.79 903.25
  L 180.75 903.71
  Q 180.01 903.73 180.00 904.25
  Q 179.54 928.05 179.75 963.71
  L 121.75 963.96
  Q 120.94 964.12 120.16 963.95
  A 0.68 0.62 -84.6 0 1 119.68 963.31
  Q 119.18 933.43 119.75 903.54
  L 179.79 903.25
  Z"
/>
<path fill="#37342d" fill-opacity="0.455" d="
  M 420.79 903.25
  Q 425.69 903.62 434.00 903.50
  Q 452.71 903.23 480.71 903.75
  Q 481.00 906.06 481.00 906.75
  Q 480.97 935.00 481.04 963.25
  Q 480.28 963.75 478.25 963.75
  Q 450.12 963.72 422.00 963.79
  L 420.75 963.96
  Q 420.85 941.35 420.44 918.75
  Q 420.30 911.59 421.19 904.49
  A 0.70 0.61 -77.0 0 0 420.81 903.77
  L 420.25 903.54
  Q 420.62 903.59 420.79 903.25
  Z"
/>
<path fill="#060605" fill-opacity="0.051" d="
  M 481.25 903.21
  Q 483.29 903.53 487.25 903.50
  Q 498.24 903.42 540.75 903.54
  Q 540.48 904.46 541.09 905.21
  A 1.53 0.99 34.6 0 1 541.44 906.06
  L 541.50 961.27
  Q 541.50 964.40 538.11 964.40
  L 531.86 964.42
  A 0.49 0.13 -62.7 0 0 531.57 964.74
  Q 531.51 964.85 531.24 964.55
  A 0.95 0.78 66.0 0 0 530.62 964.24
  L 482.26 964.00
  A 1.20 0.67 60.7 0 1 481.52 963.55
  Q 481.33 963.32 481.04 963.25
  Q 480.97 935.00 481.00 906.75
  Q 481.00 906.06 480.71 903.75
  Q 480.88 903.38 481.25 903.21
  Z"
/>
<path fill="#5b574c" fill-opacity="0.773" d="
  M 420.25 903.54
  L 420.81 903.77
  A 0.70 0.61 -77.0 0 1 421.19 904.49
  Q 420.30 911.59 420.44 918.75
  Q 420.85 941.35 420.75 963.96
  Q 337.85 963.69 254.94 963.91
  Q 245.58 963.93 234.94 963.86
  Q 207.35 963.66 179.75 963.71
  Q 179.54 928.05 180.00 904.25
  Q 180.01 903.73 180.75 903.71
  L 420.25 903.54
  Z"
/>
<path fill="#060605" fill-opacity="0.051" d="
  M 117.74 962.26
  Q 117.01 963.63 116.25 963.63
  Q 89.25 963.75 61.42 963.75
  Q 59.25 963.75 59.25 961.58
  Q 59.25 934.75 59.25 907.25
  Q 59.25 904.18 61.76 904.38
  Q 63.16 904.49 63.26 904.49
  Q 90.35 904.28 117.43 904.80
  A 0.52 0.51 0.6 0 1 117.94 905.31
  L 118.00 961.24
  Q 118.00 961.78 117.74 962.26
  Z"
/>
<path fill="#10100f" fill-opacity="0.145" d="
  M 179.75 963.71
  Q 207.35 963.66 234.94 963.86
  Q 245.58 963.93 254.94 963.91
  Q 337.85 963.69 420.75 963.96
  L 422.00 963.79
  Q 420.48 964.19 420.70 965.42
  Q 421.00 967.08 421.00 967.13
  Q 421.00 994.94 420.94 1022.75
  Q 420.93 1023.59 420.19 1024.00
  L 404.69 1024.00
  Q 393.25 1023.52 365.25 1023.50
  Q 361.65 1023.50 360.19 1024.00
  L 243.44 1024.00
  Q 243.31 1023.75 242.50 1023.75
  Q 181.50 1023.75 119.80 1023.75
  A 0.57 0.56 4.0 0 1 119.24 1023.11
  Q 119.89 1018.02 119.81 1013.00
  Q 119.44 988.75 120.00 964.68
  A 0.44 0.44 -89.3 0 1 120.44 964.25
  Q 122.78 964.25 121.75 963.96
  L 179.75 963.71
  Z
  M 239.82 966.53
  Q 239.30 967.17 239.90 967.90
  A 1.59 1.14 32.2 0 1 240.25 968.76
  L 240.43 1022.40
  A 0.73 0.29 -39.9 0 1 240.19 1022.84
  L 240.00 1023.06
  Q 239.59 1023.50 240.46 1023.50
  L 358.50 1023.75
  A 1.32 1.22 -81.1 0 0 359.69 1022.81
  Q 360.83 1018.98 360.65 1015.03
  Q 360.49 1011.54 360.49 1011.46
  Q 360.35 989.35 360.50 967.25
  A 1.20 0.88 26.4 0 0 360.09 966.46
  Q 359.58 966.01 359.67 965.41
  A 0.43 0.37 -85.2 0 0 359.32 964.93
  Q 299.91 964.44 240.50 964.87
  Q 239.27 964.88 239.88 965.79
  A 0.66 0.61 -42.7 0 1 239.82 966.53
  Z"
/>
<path fill="#181415" fill-opacity="0.188" d="
  M 239.88 965.79
  Q 239.27 964.88 240.50 964.87
  Q 299.91 964.44 359.32 964.93
  A 0.43 0.37 -85.2 0 1 359.67 965.41
  Q 359.58 966.01 360.09 966.46
  A 1.20 0.88 26.4 0 1 360.50 967.25
  Q 360.35 989.35 360.49 1011.46
  Q 360.49 1011.54 360.65 1015.03
  Q 360.83 1018.98 359.69 1022.81
  A 1.32 1.22 -81.1 0 1 358.50 1023.75
  L 240.46 1023.50
  Q 239.59 1023.50 240.00 1023.06
  L 240.19 1022.84
  A 0.73 0.29 -39.9 0 0 240.43 1022.40
  L 240.25 968.76
  A 1.59 1.14 32.2 0 0 239.90 967.90
  Q 239.30 967.17 239.82 966.53
  A 0.66 0.61 -42.7 0 0 239.88 965.79
  Z"
/>
<path fill="#0c0c09" fill-opacity="0.098" d="
  M 404.69 1024.00
  L 360.19 1024.00
  Q 361.65 1023.50 365.25 1023.50
  Q 393.25 1023.52 404.69 1024.00
  Z"
/>
</svg>
