<?xml version="1.0" encoding="UTF-8" standalone="no"?>
<!DOCTYPE svg PUBLIC "-//W3C//DTD SVG 1.1//EN" "http://www.w3.org/Graphics/SVG/1.1/DTD/svg11.dtd">
<svg xmlns="http://www.w3.org/2000/svg" version="1.1" viewBox="0 0 895 1024">
<g stroke-width="2.00" fill="none" stroke-linecap="butt">
<path stroke="#316222" stroke-opacity="0.996" vector-effect="non-scaling-stroke" d="
  M 639.25 0.21
  L 255.50 0.21"
/>
<path stroke="#3c452c" vector-effect="non-scaling-stroke" d="
  M 831.21 191.75
  L 768.45 191.99
  A 0.96 0.94 -0.3 0 0 767.50 192.93
  L 767.44 255.31
  A 0.51 0.49 90.0 0 0 767.93 255.82
  L 830.14 255.99
  A 1.13 1.12 -0.3 0 1 831.26 257.09
  Q 831.82 287.47 831.30 319.22
  A 0.73 0.73 -89.6 0 1 830.57 319.94
  L 704.27 320.00
  A 0.77 0.77 0.0 0 0 703.50 320.77
  L 703.44 383.31
  A 0.51 0.49 90.0 0 0 703.93 383.82
  L 766.21 383.99
  A 1.30 1.29 0.2 0 1 767.50 385.28
  L 767.44 511.08
  A 0.92 0.92 0.4 0 1 766.52 512.00
  L 703.93 512.00
  A 0.68 0.68 89.9 0 1 703.25 511.32
  L 703.25 448.59
  A 0.59 0.59 0.0 0 0 702.66 448.00
  L 640.24 448.00
  A 0.82 0.81 90.0 0 0 639.43 448.82
  L 639.32 511.18
  A 0.83 0.83 -89.7 0 1 638.49 512.00
  L 512.46 512.06
  A 0.97 0.96 -90.0 0 0 511.50 513.03
  L 511.31 575.21
  A 0.74 0.73 -89.6 0 1 510.58 575.94
  L 448.01 576.00
  A 0.70 0.70 -89.7 0 1 447.31 575.30
  L 447.25 448.64
  A 0.64 0.64 45.0 0 0 446.61 448.00
  L 384.24 448.00
  A 0.94 0.92 90.0 0 0 383.32 448.94
  L 383.30 511.26
  A 0.76 0.74 -0.0 0 1 382.54 512.00
  L 320.27 512.00
  A 0.76 0.76 0.0 0 0 319.51 512.76
  L 319.44 575.07
  A 0.93 0.93 0.3 0 1 318.51 576.00
  L 255.93 576.00
  A 0.68 0.68 0.1 0 1 255.25 575.32
  L 255.25 448.99
  A 0.99 0.99 -45.0 0 1 256.24 448.00
  L 318.50 448.00
  A 0.81 0.81 -45.0 0 0 319.31 447.19
  L 319.25 384.59
  A 0.59 0.59 0.0 0 0 318.66 384.00
  L 256.16 384.00
  A 0.72 0.72 0.0 0 0 255.44 384.72
  L 255.44 446.69
  A 1.31 1.30 90.0 0 1 254.14 448.00
  L 127.95 447.94
  A 0.71 0.70 90.0 0 1 127.25 447.23
  L 127.25 385.00
  A 1.00 1.00 -45.0 0 1 128.25 384.00
  L 190.50 384.00
  A 0.81 0.81 -45.0 0 0 191.31 383.19
  L 191.19 320.56
  A 0.50 0.50 -45.0 0 0 190.69 320.06
  L 127.93 320.18
  A 0.50 0.50 45.0 0 0 127.43 320.68
  L 127.43 382.67
  A 1.33 1.30 -90.0 0 1 126.13 384.00
  L 63.95 383.94
  A 0.71 0.70 90.0 0 1 63.25 383.23
  L 63.25 321.02
  A 1.02 1.02 1.3 0 1 64.27 320.00
  L 126.69 319.94
  A 0.51 0.50 -90.0 0 0 127.19 319.43
  L 127.25 257.09
  A 1.09 1.08 90.0 0 1 128.33 256.00
  L 190.50 256.00
  A 0.81 0.81 -45.0 0 0 191.31 255.19
  L 191.25 192.59
  A 0.59 0.59 0.0 0 0 190.66 192.00
  Q 127.75 192.00 64.50 192.00
  Q 63.64 192.00 63.29 192.25"
/>
<path stroke="#518828" vector-effect="non-scaling-stroke" d="
  M 318.69 255.94
  L 256.06 256.00
  A 0.56 0.56 0.0 0 0 255.50 256.56
  L 255.44 319.31
  A 0.51 0.49 -90.0 0 0 255.93 319.82
  L 318.69 319.94
  A 0.51 0.50 -90.0 0 0 319.19 319.43
  L 319.44 256.72
  A 0.67 0.66 -89.6 0 1 320.10 256.06
  L 382.82 256.18
  A 0.50 0.49 90.0 0 1 383.31 256.68
  L 383.50 383.48
  A 0.52 0.52 0.0 0 0 384.02 384.00
  L 446.75 384.00
  A 0.69 0.69 45.0 0 0 447.44 383.31
  L 447.45 320.57
  A 0.58 0.57 -0.0 0 1 448.03 320.00
  L 510.69 319.94
  A 0.50 0.49 -0.0 0 0 511.19 319.45
  L 511.31 256.56
  A 0.57 0.57 -89.5 0 1 511.88 256.00
  L 573.85 256.00
  A 1.48 1.47 90.0 0 0 575.32 254.52
  L 575.45 192.61
  A 0.61 0.61 -90.0 0 1 576.06 192.00
  L 638.69 191.94
  A 0.50 0.50 45.0 0 0 639.19 191.44
  L 639.43 128.65
  A 0.64 0.64 -89.6 0 0 638.79 128.00
  L 575.86 128.00
  A 0.54 0.54 -89.5 0 1 575.32 127.45
  Q 575.80 109.59 575.40 91.50
  Q 575.12 78.75 575.53 64.89
  A 0.80 0.80 -89.0 0 0 574.73 64.06
  L 512.13 64.00
  A 0.63 0.63 45.0 0 0 511.50 64.63
  L 511.44 127.21
  A 0.78 0.78 -89.9 0 1 510.66 127.99
  L 447.93 127.82
  A 0.50 0.50 45.0 0 1 447.43 127.32
  L 447.43 64.78
  A 0.77 0.76 89.6 0 0 446.66 64.01
  L 383.94 64.18
  A 0.50 0.50 45.0 0 0 383.44 64.68
  L 383.50 127.51
  A 0.43 0.42 -90.0 0 1 383.08 127.94
  L 256.04 128.00
  A 0.54 0.54 0.0 0 0 255.50 128.54
  L 255.44 191.31
  A 0.51 0.50 90.0 0 0 255.94 191.82
  L 318.61 192.00
  A 0.83 0.83 -89.3 0 1 319.44 192.85
  Q 318.95 214.47 319.50 236.00
  Q 319.65 241.74 319.20 255.44
  A 0.51 0.51 -89.4 0 1 318.69 255.94"
/>
<path stroke="#518828" vector-effect="non-scaling-stroke" d="
  M 639.29 256.27
  A 0.27 0.27 0.0 0 0 639.02 256.00
  L 575.76 256.00
  A 0.27 0.27 0.0 0 0 575.49 256.27
  L 575.49 319.73
  A 0.27 0.27 0.0 0 0 575.76 320.00
  L 639.02 320.00
  A 0.27 0.27 0.0 0 0 639.29 319.73
  L 639.29 256.27"
/>
<path stroke="#3c452c" vector-effect="non-scaling-stroke" d="
  M 639.25 384.27
  A 0.27 0.27 0.0 0 0 638.98 384.00
  L 575.76 384.00
  A 0.27 0.27 0.0 0 0 575.49 384.27
  L 575.49 447.73
  A 0.27 0.27 0.0 0 0 575.76 448.00
  L 638.98 448.00
  A 0.27 0.27 0.0 0 0 639.25 447.73
  L 639.25 384.27"
/>
<path stroke="#49353a" stroke-opacity="0.843" vector-effect="non-scaling-stroke" d="
  M 895.00 262.56
  Q 894.37 265.81 895.00 269.06"
/>
<path stroke="#432d34" stroke-opacity="0.765" vector-effect="non-scaling-stroke" d="
  M 895.00 280.06
  Q 894.37 283.56 895.00 287.06"
/>
<path stroke="#3e2630" stroke-opacity="0.682" vector-effect="non-scaling-stroke" d="
  M 895.00 298.56
  Q 894.37 300.81 895.00 303.06"
/>
<path stroke="#3e2630" stroke-opacity="0.682" vector-effect="non-scaling-stroke" d="
  M 895.00 306.56
  Q 894.37 308.81 895.00 311.06"
/>
<path stroke="#3e2630" stroke-opacity="0.682" vector-effect="non-scaling-stroke" d="
  M 895.00 314.56
  Q 894.37 316.81 895.00 319.06"
/>
<path stroke="#3e2630" stroke-opacity="0.682" vector-effect="non-scaling-stroke" d="
  M 895.00 322.56
  Q 894.37 324.81 895.00 327.06"
/>
<path stroke="#3e2630" stroke-opacity="0.682" vector-effect="non-scaling-stroke" d="
  M 895.00 330.56
  Q 894.37 332.81 895.00 335.06"
/>
<path stroke="#3e2630" stroke-opacity="0.682" vector-effect="non-scaling-stroke" d="
  M 895.00 338.56
  Q 894.37 340.81 895.00 343.06"
/>
<path stroke="#3e2630" stroke-opacity="0.682" vector-effect="non-scaling-stroke" d="
  M 895.00 346.56
  Q 894.37 348.81 895.00 351.06"
/>
<path stroke="#3e2630" stroke-opacity="0.682" vector-effect="non-scaling-stroke" d="
  M 895.00 354.56
  Q 894.37 356.81 895.00 359.06"
/>
<path stroke="#3e2630" stroke-opacity="0.682" vector-effect="non-scaling-stroke" d="
  M 895.00 362.56
  Q 894.37 364.81 895.00 367.06"
/>
<path stroke="#3e2630" stroke-opacity="0.682" vector-effect="non-scaling-stroke" d="
  M 895.00 370.56
  Q 894.37 372.81 895.00 375.06"
/>
<path stroke="#3e2630" stroke-opacity="0.682" vector-effect="non-scaling-stroke" d="
  M 895.00 378.56
  Q 894.37 380.81 895.00 383.06"
/>
<path stroke="#3e2630" stroke-opacity="0.682" vector-effect="non-scaling-stroke" d="
  M 895.00 386.56
  Q 894.37 388.81 895.00 391.06"
/>
<path stroke="#3e2630" stroke-opacity="0.682" vector-effect="non-scaling-stroke" d="
  M 895.00 394.56
  Q 894.37 396.81 895.00 399.06"
/>
<path stroke="#3e2630" stroke-opacity="0.682" vector-effect="non-scaling-stroke" d="
  M 895.00 402.56
  Q 894.37 404.81 895.00 407.06"
/>
<path stroke="#432d34" stroke-opacity="0.765" vector-effect="non-scaling-stroke" d="
  M 895.00 418.06
  Q 894.37 421.06 895.00 424.06"
/>
<path stroke="#3c452c" vector-effect="non-scaling-stroke" d="
  M 895.00 448.06
  L 832.36 448.00
  A 1.11 1.11 -45.0 0 0 831.25 449.11
  L 831.31 511.30
  A 0.71 0.70 0.0 0 0 832.02 512.00
  L 894.71 512.00"
/>
<path stroke="#3d222f" stroke-opacity="0.592" vector-effect="non-scaling-stroke" d="
  M 894.71 512.00
  L 895.00 515.06"
/>
<path stroke="#432d34" stroke-opacity="0.765" vector-effect="non-scaling-stroke" d="
  M 895.00 530.06
  Q 894.37 533.06 895.00 536.06"
/>
<path stroke="#432d34" stroke-opacity="0.765" vector-effect="non-scaling-stroke" d="
  M 895.00 551.56
  Q 894.37 561.81 895.00 572.06"
/>
<path stroke="#5d4b4b" vector-effect="non-scaling-stroke" d="
  M 767.21 703.75
  L 703.25 703.96"
/>
<path stroke="#3c452c" vector-effect="non-scaling-stroke" d="
  M 703.25 703.96
  Q 703.83 672.14 703.32 640.72
  A 0.71 0.71 89.6 0 1 704.03 640.00
  L 766.04 639.94
  A 1.41 1.40 -90.0 0 0 767.44 638.53
  L 767.50 577.09
  A 1.09 1.09 -45.0 0 0 766.41 576.00
  L 704.24 576.00
  A 0.99 0.99 -45.0 0 0 703.25 576.99
  L 703.25 639.48
  A 0.52 0.52 -0.0 0 1 702.73 640.00
  L 640.38 640.00
  A 1.12 1.11 -0.3 0 0 639.26 641.12
  L 639.50 703.96"
/>
<path stroke="#5d4b4b" vector-effect="non-scaling-stroke" d="
  M 639.50 703.96
  L 575.94 704.18
  A 0.50 0.50 45.0 0 0 575.44 704.68
  L 575.50 831.40
  A 0.60 0.60 0.0 0 0 576.10 832.00
  L 639.21 832.00"
/>
<path stroke="#523f41" stroke-opacity="0.918" vector-effect="non-scaling-stroke" d="
  M 639.21 832.00
  Q 639.53 833.17 639.50 835.75
  Q 639.21 858.62 639.75 895.46"
/>
<path stroke="#483339" stroke-opacity="0.824" vector-effect="non-scaling-stroke" d="
  M 639.75 895.46
  L 639.25 895.79"
/>
<path stroke="#5d4b4b" vector-effect="non-scaling-stroke" d="
  M 639.25 895.79
  L 575.50 896.04"
/>
<path stroke="#653832" vector-effect="non-scaling-stroke" d="
  M 575.50 896.04
  L 511.94 895.82
  A 0.52 0.52 5.9 0 1 511.43 895.31
  L 511.31 704.68
  A 0.68 0.68 -0.0 0 0 510.63 704.00
  L 448.12 704.00
  A 0.69 0.68 -0.0 0 0 447.43 704.68
  L 447.50 767.33
  A 0.68 0.67 -0.0 0 1 446.82 768.00
  L 384.16 768.00
  A 0.72 0.72 0.0 0 0 383.44 768.72
  L 383.50 831.50
  A 0.50 0.50 -45.0 0 1 383.00 832.00
  L 320.16 832.00
  A 0.66 0.66 89.6 0 0 319.50 832.67
  Q 319.63 856.00 319.25 878.50
  Q 319.12 886.88 319.50 895.25
  Q 319.52 895.68 319.21 896.00"
/>
<path stroke="#5d4b4b" vector-effect="non-scaling-stroke" d="
  M 319.21 896.00
  L 255.50 895.96"
/>
<path stroke="#49353a" stroke-opacity="0.843" vector-effect="non-scaling-stroke" d="
  M 255.50 895.96
  L 255.25 832.25"
/>
<path stroke="#5d4b4b" vector-effect="non-scaling-stroke" d="
  M 255.25 832.25
  Q 255.61 831.62 256.25 832.00
  Q 287.00 832.00 318.50 832.00
  A 0.94 0.93 -0.3 0 0 319.44 831.06
  Q 318.93 767.61 319.50 704.04"
/>
<path stroke="#3c452c" vector-effect="non-scaling-stroke" d="
  M 319.50 704.04
  L 382.24 704.00
  A 1.26 1.26 45.0 0 0 383.50 702.74
  L 383.50 577.26
  A 1.26 1.26 -45.0 0 0 382.24 576.00
  L 320.00 576.06
  A 0.76 0.75 90.0 0 0 319.25 576.82
  L 319.25 703.96"
/>
<path stroke="#5d4b4b" vector-effect="non-scaling-stroke" d="
  M 319.25 703.96
  L 191.50 704.04"
/>
<path stroke="#4c383d" stroke-opacity="0.867" vector-effect="non-scaling-stroke" d="
  M 191.50 704.04
  L 127.54 704.25"
/>
<path stroke="#3c452c" vector-effect="non-scaling-stroke" d="
  M 0.00 512.19
  L 61.88 512.00
  A 1.55 1.54 -0.4 0 0 63.43 510.44
  Q 62.96 480.47 63.51 449.06
  A 1.04 1.04 -89.5 0 0 62.47 448.00
  L 0.00 447.94"
/>
<path stroke="#3c452c" vector-effect="non-scaling-stroke" d="
  M 64.42 575.81
  L 190.21 576.00
  A 1.29 1.29 0.0 0 0 191.50 574.71
  L 191.50 513.09
  A 1.09 1.09 -89.7 0 0 190.41 512.00
  L 64.12 512.00
  A 0.69 0.69 -89.1 0 0 63.43 512.67
  Q 62.92 543.72 63.50 574.90
  A 0.92 0.92 89.7 0 0 64.42 575.81"
/>
<path stroke="#3c452c" vector-effect="non-scaling-stroke" d="
  M 639.31 576.80
  A 0.80 0.80 0.0 0 0 638.51 576.00
  L 576.05 576.00
  A 0.80 0.80 0.0 0 0 575.25 576.80
  L 575.25 639.20
  A 0.80 0.80 0.0 0 0 576.05 640.00
  L 638.51 640.00
  A 0.80 0.80 0.0 0 0 639.31 639.20
  L 639.31 576.80"
/>
<path stroke="#38582a" stroke-opacity="0.765" vector-effect="non-scaling-stroke" d="
  M 895.00 448.81
  Q 894.37 479.44 895.00 510.06"
/>
<path stroke="#2f5921" stroke-opacity="0.592" vector-effect="non-scaling-stroke" d="
  M 895.00 510.56
  Q 894.58 511.20 894.71 512.00"
/>
<path stroke="#556b43" vector-effect="non-scaling-stroke" d="
  M 319.50 704.04
  L 319.25 703.96"
/>
<path stroke="#556b43" vector-effect="non-scaling-stroke" d="
  M 703.25 703.96
  L 639.50 703.96"
/>
<path stroke="#635f52" stroke-opacity="0.765" vector-effect="non-scaling-stroke" d="
  M 767.54 704.25
  Q 767.23 732.71 767.43 761.17
  Q 767.43 761.24 767.29 763.95
  Q 767.18 765.97 767.75 767.96"
/>
<path stroke="#666255" stroke-opacity="0.827" vector-effect="non-scaling-stroke" d="
  M 767.25 768.29
  Q 766.15 768.00 763.50 768.00
  Q 733.62 767.97 703.75 768.04"
/>
<path stroke="#6c695a" stroke-opacity="0.918" vector-effect="non-scaling-stroke" d="
  M 703.75 768.04
  L 640.52 768.00
  A 1.02 1.02 0.0 0 0 639.50 769.02
  Q 639.50 799.62 639.50 830.75
  Q 639.50 831.64 639.21 832.00"
/>
<path stroke="#686457" stroke-opacity="0.867" vector-effect="non-scaling-stroke" d="
  M 191.50 704.04
  Q 190.69 704.40 191.25 705.00
  Q 191.63 712.82 191.53 720.63
  Q 191.34 735.48 191.35 736.25
  Q 191.42 751.85 191.50 767.46"
/>
<path stroke="#6c695a" stroke-opacity="0.918" vector-effect="non-scaling-stroke" d="
  M 255.25 832.25
  L 255.21 832.00"
/>
<path stroke="#6e6a5b" stroke-opacity="0.933" vector-effect="non-scaling-stroke" d="
  M 255.21 832.00
  L 255.42 769.63
  A 1.55 1.52 -89.8 0 0 253.90 768.07
  L 192.72 768.07
  A 0.72 0.71 0.8 0 1 192.00 767.34
  Q 192.06 765.64 191.50 767.46"
/>
<path stroke="#7d5f49" vector-effect="non-scaling-stroke" d="
  M 575.50 896.04
  L 575.25 959.71"
/>
<path stroke="#6e4a35" stroke-opacity="0.816" vector-effect="non-scaling-stroke" d="
  M 575.25 959.71
  Q 575.02 959.77 574.96 960.00"
/>
<path stroke="#73523d" stroke-opacity="0.894" vector-effect="non-scaling-stroke" d="
  M 574.96 960.00
  L 449.00 960.21"
/>
<path stroke="#75543e" stroke-opacity="0.914" vector-effect="non-scaling-stroke" d="
  M 449.00 960.21
  L 447.75 960.21"
/>
<path stroke="#795944" stroke-opacity="0.957" vector-effect="non-scaling-stroke" d="
  M 447.75 960.21
  Q 447.60 959.91 447.25 959.96"
/>
<path stroke="#653832" vector-effect="non-scaling-stroke" d="
  M 447.25 959.96
  Q 447.19 952.05 447.32 944.14
  Q 447.45 936.27 447.31 928.36
  Q 447.02 912.46 447.49 896.69
  A 0.67 0.66 1.2 0 0 446.82 896.00
  L 384.37 896.00
  A 0.89 0.88 -89.7 0 0 383.49 896.88
  L 383.25 959.71"
/>
<path stroke="#795944" stroke-opacity="0.957" vector-effect="non-scaling-stroke" d="
  M 383.25 959.71
  Q 381.23 960.05 377.25 960.00
  Q 354.52 959.72 319.29 960.25"
/>
<path stroke="#704c38" stroke-opacity="0.843" vector-effect="non-scaling-stroke" d="
  M 319.29 960.25
  L 319.21 960.00"
/>
<path stroke="#7d5f49" vector-effect="non-scaling-stroke" d="
  M 319.21 960.00
  Q 319.90 928.00 319.21 896.00"
/>
<path stroke="#666255" stroke-opacity="0.843" vector-effect="non-scaling-stroke" d="
  M 255.50 895.96
  L 255.25 896.04"
/>
<path stroke="#666255" stroke-opacity="0.843" vector-effect="non-scaling-stroke" d="
  M 255.25 956.79
  L 255.21 960.00"
/>
<path stroke="#656154" stroke-opacity="0.824" vector-effect="non-scaling-stroke" d="
  M 639.29 959.75
  L 639.25 895.79"
/>
<path stroke="#666355" stroke-opacity="0.592" vector-effect="non-scaling-stroke" d="
  M 639.29 959.75
  L 639.25 959.96"
/>
<path stroke="#646154" stroke-opacity="0.816" vector-effect="non-scaling-stroke" d="
  M 639.25 959.96
  Q 608.25 960.03 577.25 960.00
  Q 575.80 960.00 575.25 959.71"
/>
<path stroke="#686457" stroke-opacity="0.859" vector-effect="non-scaling-stroke" d="
  M 255.25 896.04
  L 255.25 956.79"
/>
<path stroke="#666255" stroke-opacity="0.843" vector-effect="non-scaling-stroke" d="
  M 319.21 960.00
  Q 288.60 960.00 258.00 960.00
  Q 255.89 960.00 255.29 960.25"
/>
<path stroke="#6c6859" stroke-opacity="0.549" vector-effect="non-scaling-stroke" d="
  M 255.29 960.25
  L 255.21 960.00"
/>
<path stroke="#574446" stroke-opacity="0.957" vector-effect="non-scaling-stroke" d="
  M 447.25 959.96
  Q 416.25 960.03 385.25 960.00
  Q 383.80 960.00 383.25 959.71"
/>
</g>
<path fill="#2d5e1f" fill-opacity="0.992" d="
  M 255.56 0.00
  L 639.31 0.00
  L 639.25 0.21
  L 255.50 0.21
  L 255.56 0.00
  Z"
/>
<path fill="#346524" d="
  M 255.50 0.21
  L 639.25 0.21
  L 639.31 63.44
  A 0.50 0.50 -45.0 0 0 639.81 63.94
  L 766.69 64.06
  A 0.53 0.52 -1.1 0 1 767.22 64.56
  Q 767.30 66.12 767.25 70.75
  Q 767.14 81.43 767.31 127.44
  A 0.51 0.50 0.0 0 0 767.82 127.94
  L 830.63 128.00
  A 0.80 0.80 -89.6 0 1 831.43 128.81
  L 831.21 191.75
  L 768.45 191.99
  A 0.96 0.94 -0.3 0 0 767.50 192.93
  L 767.44 255.31
  A 0.51 0.49 90.0 0 0 767.93 255.82
  L 830.14 255.99
  A 1.13 1.12 -0.3 0 1 831.26 257.09
  Q 831.82 287.47 831.30 319.22
  A 0.73 0.73 -89.6 0 1 830.57 319.94
  L 704.27 320.00
  A 0.77 0.77 0.0 0 0 703.50 320.77
  L 703.44 383.31
  A 0.51 0.49 90.0 0 0 703.93 383.82
  L 766.21 383.99
  A 1.30 1.29 0.2 0 1 767.50 385.28
  L 767.44 511.08
  A 0.92 0.92 0.4 0 1 766.52 512.00
  L 703.93 512.00
  A 0.68 0.68 89.9 0 1 703.25 511.32
  L 703.25 448.59
  A 0.59 0.59 0.0 0 0 702.66 448.00
  L 640.24 448.00
  A 0.82 0.81 90.0 0 0 639.43 448.82
  L 639.32 511.18
  A 0.83 0.83 -89.7 0 1 638.49 512.00
  L 512.46 512.06
  A 0.97 0.96 -90.0 0 0 511.50 513.03
  L 511.31 575.21
  A 0.74 0.73 -89.6 0 1 510.58 575.94
  L 448.01 576.00
  A 0.70 0.70 -89.7 0 1 447.31 575.30
  L 447.25 448.64
  A 0.64 0.64 45.0 0 0 446.61 448.00
  L 384.24 448.00
  A 0.94 0.92 90.0 0 0 383.32 448.94
  L 383.30 511.26
  A 0.76 0.74 -0.0 0 1 382.54 512.00
  L 320.27 512.00
  A 0.76 0.76 0.0 0 0 319.51 512.76
  L 319.44 575.07
  A 0.93 0.93 0.3 0 1 318.51 576.00
  L 255.93 576.00
  A 0.68 0.68 0.1 0 1 255.25 575.32
  L 255.25 448.99
  A 0.99 0.99 -45.0 0 1 256.24 448.00
  L 318.50 448.00
  A 0.81 0.81 -45.0 0 0 319.31 447.19
  L 319.25 384.59
  A 0.59 0.59 0.0 0 0 318.66 384.00
  L 256.16 384.00
  A 0.72 0.72 0.0 0 0 255.44 384.72
  L 255.44 446.69
  A 1.31 1.30 90.0 0 1 254.14 448.00
  L 127.95 447.94
  A 0.71 0.70 90.0 0 1 127.25 447.23
  L 127.25 385.00
  A 1.00 1.00 -45.0 0 1 128.25 384.00
  L 190.50 384.00
  A 0.81 0.81 -45.0 0 0 191.31 383.19
  L 191.19 320.56
  A 0.50 0.50 -45.0 0 0 190.69 320.06
  L 127.93 320.18
  A 0.50 0.50 45.0 0 0 127.43 320.68
  L 127.43 382.67
  A 1.33 1.30 -90.0 0 1 126.13 384.00
  L 63.95 383.94
  A 0.71 0.70 90.0 0 1 63.25 383.23
  L 63.25 321.02
  A 1.02 1.02 1.3 0 1 64.27 320.00
  L 126.69 319.94
  A 0.51 0.50 -90.0 0 0 127.19 319.43
  L 127.25 257.09
  A 1.09 1.08 90.0 0 1 128.33 256.00
  L 190.50 256.00
  A 0.81 0.81 -45.0 0 0 191.31 255.19
  L 191.25 192.59
  A 0.59 0.59 0.0 0 0 190.66 192.00
  Q 127.75 192.00 64.50 192.00
  Q 63.64 192.00 63.29 192.25
  L 63.25 128.75
  A 0.77 0.76 -0.4 0 1 64.01 127.99
  L 126.81 127.82
  A 0.50 0.50 45.0 0 0 127.31 127.32
  L 127.31 64.55
  A 0.55 0.55 -45.0 0 1 127.86 64.00
  L 254.79 64.00
  A 0.64 0.64 89.6 0 0 255.43 63.35
  Q 254.92 31.95 255.50 0.21
  Z
  M 318.69 255.94
  L 256.06 256.00
  A 0.56 0.56 0.0 0 0 255.50 256.56
  L 255.44 319.31
  A 0.51 0.49 -90.0 0 0 255.93 319.82
  L 318.69 319.94
  A 0.51 0.50 -90.0 0 0 319.19 319.43
  L 319.44 256.72
  A 0.67 0.66 -89.6 0 1 320.10 256.06
  L 382.82 256.18
  A 0.50 0.49 90.0 0 1 383.31 256.68
  L 383.50 383.48
  A 0.52 0.52 0.0 0 0 384.02 384.00
  L 446.75 384.00
  A 0.69 0.69 45.0 0 0 447.44 383.31
  L 447.45 320.57
  A 0.58 0.57 -0.0 0 1 448.03 320.00
  L 510.69 319.94
  A 0.50 0.49 -0.0 0 0 511.19 319.45
  L 511.31 256.56
  A 0.57 0.57 -89.5 0 1 511.88 256.00
  L 573.85 256.00
  A 1.48 1.47 90.0 0 0 575.32 254.52
  L 575.45 192.61
  A 0.61 0.61 -90.0 0 1 576.06 192.00
  L 638.69 191.94
  A 0.50 0.50 45.0 0 0 639.19 191.44
  L 639.43 128.65
  A 0.64 0.64 -89.6 0 0 638.79 128.00
  L 575.86 128.00
  A 0.54 0.54 -89.5 0 1 575.32 127.45
  Q 575.80 109.59 575.40 91.50
  Q 575.12 78.75 575.53 64.89
  A 0.80 0.80 -89.0 0 0 574.73 64.06
  L 512.13 64.00
  A 0.63 0.63 45.0 0 0 511.50 64.63
  L 511.44 127.21
  A 0.78 0.78 -89.9 0 1 510.66 127.99
  L 447.93 127.82
  A 0.50 0.50 45.0 0 1 447.43 127.32
  L 447.43 64.78
  A 0.77 0.76 89.6 0 0 446.66 64.01
  L 383.94 64.18
  A 0.50 0.50 45.0 0 0 383.44 64.68
  L 383.50 127.51
  A 0.43 0.42 -90.0 0 1 383.08 127.94
  L 256.04 128.00
  A 0.54 0.54 0.0 0 0 255.50 128.54
  L 255.44 191.31
  A 0.51 0.50 90.0 0 0 255.94 191.82
  L 318.61 192.00
  A 0.83 0.83 -89.3 0 1 319.44 192.85
  Q 318.95 214.47 319.50 236.00
  Q 319.65 241.74 319.20 255.44
  A 0.51 0.51 -89.4 0 1 318.69 255.94
  Z
  M 639.29 256.27
  A 0.27 0.27 0.0 0 0 639.02 256.00
  L 575.76 256.00
  A 0.27 0.27 0.0 0 0 575.49 256.27
  L 575.49 319.73
  A 0.27 0.27 0.0 0 0 575.76 320.00
  L 639.02 320.00
  A 0.27 0.27 0.0 0 0 639.29 319.73
  L 639.29 256.27
  Z
  M 639.25 384.27
  A 0.27 0.27 0.0 0 0 638.98 384.00
  L 575.76 384.00
  A 0.27 0.27 0.0 0 0 575.49 384.27
  L 575.49 447.73
  A 0.27 0.27 0.0 0 0 575.76 448.00
  L 638.98 448.00
  A 0.27 0.27 0.0 0 0 639.25 447.73
  L 639.25 384.27
  Z"
/>
<path fill="#6daa2c" d="
  M 319.20 255.44
  Q 319.65 241.74 319.50 236.00
  Q 318.95 214.47 319.44 192.85
  A 0.83 0.83 -89.3 0 0 318.61 192.00
  L 255.94 191.82
  A 0.51 0.50 90.0 0 1 255.44 191.31
  L 255.50 128.54
  A 0.54 0.54 -0.2 0 1 256.04 128.00
  L 383.08 127.94
  A 0.43 0.42 90.0 0 0 383.50 127.51
  L 383.44 64.68
  A 0.50 0.50 -45.0 0 1 383.94 64.18
  L 446.66 64.01
  A 0.77 0.76 89.6 0 1 447.43 64.78
  L 447.43 127.32
  A 0.50 0.50 -45.0 0 0 447.93 127.82
  L 510.66 127.99
  A 0.78 0.78 -89.9 0 0 511.44 127.21
  L 511.50 64.63
  A 0.63 0.63 45.0 0 1 512.13 64.00
  L 574.73 64.06
  A 0.80 0.80 -89.0 0 1 575.53 64.89
  Q 575.12 78.75 575.40 91.50
  Q 575.80 109.59 575.32 127.45
  A 0.54 0.54 -89.5 0 0 575.86 128.00
  L 638.79 128.00
  A 0.64 0.64 -89.6 0 1 639.43 128.65
  L 639.19 191.44
  A 0.50 0.50 -45.0 0 1 638.69 191.94
  L 576.06 192.00
  A 0.61 0.61 90.0 0 0 575.45 192.61
  L 575.32 254.52
  A 1.48 1.47 90.0 0 1 573.85 256.00
  L 511.88 256.00
  A 0.57 0.57 -89.5 0 0 511.31 256.56
  L 511.19 319.45
  A 0.50 0.49 -0.0 0 1 510.69 319.94
  L 448.03 320.00
  A 0.58 0.57 -0.0 0 0 447.45 320.57
  L 447.44 383.31
  A 0.69 0.69 -45.0 0 1 446.75 384.00
  L 384.02 384.00
  A 0.52 0.52 -0.0 0 1 383.50 383.48
  L 383.31 256.68
  A 0.50 0.49 90.0 0 0 382.82 256.18
  L 320.10 256.06
  A 0.67 0.66 -89.6 0 0 319.44 256.72
  L 319.19 319.43
  A 0.51 0.50 -90.0 0 1 318.69 319.94
  L 255.93 319.82
  A 0.51 0.49 90.0 0 1 255.44 319.31
  L 255.50 256.56
  A 0.56 0.56 -0.0 0 1 256.06 256.00
  L 318.69 255.94
  A 0.51 0.51 -89.4 0 0 319.20 255.44
  Z"
/>
<path fill="#442434" d="
  M 831.21 191.75
  L 831.31 255.44
  A 0.50 0.50 -45.0 0 0 831.81 255.94
  Q 877.62 256.10 893.50 256.00
  Q 894.54 255.99 895.00 256.56
  L 895.00 262.56
  Q 894.37 265.81 895.00 269.06
  L 895.00 280.06
  Q 894.37 283.56 895.00 287.06
  L 895.00 298.56
  Q 894.37 300.81 895.00 303.06
  L 895.00 306.56
  Q 894.37 308.81 895.00 311.06
  L 895.00 314.56
  Q 894.37 316.81 895.00 319.06
  L 895.00 322.56
  Q 894.37 324.81 895.00 327.06
  L 895.00 330.56
  Q 894.37 332.81 895.00 335.06
  L 895.00 338.56
  Q 894.37 340.81 895.00 343.06
  L 895.00 346.56
  Q 894.37 348.81 895.00 351.06
  L 895.00 354.56
  Q 894.37 356.81 895.00 359.06
  L 895.00 362.56
  Q 894.37 364.81 895.00 367.06
  L 895.00 370.56
  Q 894.37 372.81 895.00 375.06
  L 895.00 378.56
  Q 894.37 380.81 895.00 383.06
  L 895.00 386.56
  Q 894.37 388.81 895.00 391.06
  L 895.00 394.56
  Q 894.37 396.81 895.00 399.06
  L 895.00 402.56
  Q 894.37 404.81 895.00 407.06
  L 895.00 418.06
  Q 894.37 421.06 895.00 424.06
  L 895.00 448.06
  L 832.36 448.00
  A 1.11 1.11 -45.0 0 0 831.25 449.11
  L 831.31 511.30
  A 0.71 0.70 0.0 0 0 832.02 512.00
  L 894.71 512.00
  L 895.00 515.06
  L 895.00 530.06
  Q 894.37 533.06 895.00 536.06
  L 895.00 551.56
  Q 894.37 561.81 895.00 572.06
  L 895.00 575.56
  Q 894.45 576.00 893.50 576.00
  Q 862.53 575.95 831.94 576.06
  A 0.62 0.62 0.0 0 0 831.32 576.68
  L 831.43 639.35
  A 0.65 0.64 -0.4 0 1 830.78 640.00
  L 767.93 640.18
  A 0.51 0.50 -89.4 0 0 767.43 640.68
  L 767.21 703.75
  L 703.25 703.96
  Q 703.83 672.14 703.32 640.72
  A 0.71 0.71 89.6 0 1 704.03 640.00
  L 766.04 639.94
  A 1.41 1.40 -90.0 0 0 767.44 638.53
  L 767.50 577.09
  A 1.09 1.09 -45.0 0 0 766.41 576.00
  L 704.24 576.00
  A 0.99 0.99 -45.0 0 0 703.25 576.99
  L 703.25 639.48
  A 0.52 0.52 -0.0 0 1 702.73 640.00
  L 640.38 640.00
  A 1.12 1.11 -0.3 0 0 639.26 641.12
  L 639.50 703.96
  L 575.94 704.18
  A 0.50 0.50 45.0 0 0 575.44 704.68
  L 575.50 831.40
  A 0.60 0.60 0.0 0 0 576.10 832.00
  L 639.21 832.00
  Q 639.53 833.17 639.50 835.75
  Q 639.21 858.62 639.75 895.46
  L 639.25 895.79
  L 575.50 896.04
  L 511.94 895.82
  A 0.52 0.52 5.9 0 1 511.43 895.31
  L 511.31 704.68
  A 0.68 0.68 -0.0 0 0 510.63 704.00
  L 448.12 704.00
  A 0.69 0.68 -0.0 0 0 447.43 704.68
  L 447.50 767.33
  A 0.68 0.67 -0.0 0 1 446.82 768.00
  L 384.16 768.00
  A 0.72 0.72 0.0 0 0 383.44 768.72
  L 383.50 831.50
  A 0.50 0.50 -45.0 0 1 383.00 832.00
  L 320.16 832.00
  A 0.66 0.66 89.6 0 0 319.50 832.67
  Q 319.63 856.00 319.25 878.50
  Q 319.12 886.88 319.50 895.25
  Q 319.52 895.68 319.21 896.00
  L 255.50 895.96
  L 255.25 832.25
  Q 255.61 831.62 256.25 832.00
  Q 287.00 832.00 318.50 832.00
  A 0.94 0.93 -0.3 0 0 319.44 831.06
  Q 318.93 767.61 319.50 704.04
  L 382.24 704.00
  A 1.26 1.26 45.0 0 0 383.50 702.74
  L 383.50 577.26
  A 1.26 1.26 -45.0 0 0 382.24 576.00
  L 320.00 576.06
  A 0.76 0.75 90.0 0 0 319.25 576.82
  L 319.25 703.96
  L 191.50 704.04
  L 127.54 704.25
  Q 126.85 672.38 127.50 640.72
  A 0.71 0.71 -89.6 0 0 126.79 640.00
  L 64.15 640.00
  A 0.83 0.83 -89.8 0 1 63.32 639.17
  L 63.43 577.08
  A 1.08 1.07 90.0 0 0 62.36 576.00
  Q 31.75 576.00 1.75 576.00
  Q 0.48 576.00 0.00 575.69
  L 0.00 512.19
  L 61.88 512.00
  A 1.55 1.54 -0.4 0 0 63.43 510.44
  Q 62.96 480.47 63.51 449.06
  A 1.04 1.04 -89.5 0 0 62.47 448.00
  L 0.00 447.94
  L 0.00 256.19
  L 62.82 255.82
  A 0.50 0.50 -0.6 0 0 63.31 255.32
  L 63.29 192.25
  Q 63.64 192.00 64.50 192.00
  Q 127.75 192.00 190.66 192.00
  A 0.59 0.59 -45.0 0 1 191.25 192.59
  L 191.31 255.19
  A 0.81 0.81 -45.0 0 1 190.50 256.00
  L 128.33 256.00
  A 1.09 1.08 90.0 0 0 127.25 257.09
  L 127.19 319.43
  A 0.51 0.50 -90.0 0 1 126.69 319.94
  L 64.27 320.00
  A 1.02 1.02 0.4 0 0 63.25 321.02
  L 63.25 383.23
  A 0.71 0.70 90.0 0 0 63.95 383.94
  L 126.13 384.00
  A 1.33 1.30 -90.0 0 0 127.43 382.67
  L 127.43 320.68
  A 0.50 0.50 -45.0 0 1 127.93 320.18
  L 190.69 320.06
  A 0.50 0.50 45.0 0 1 191.19 320.56
  L 191.31 383.19
  A 0.81 0.81 -45.0 0 1 190.50 384.00
  L 128.25 384.00
  A 1.00 1.00 45.0 0 0 127.25 385.00
  L 127.25 447.23
  A 0.71 0.70 90.0 0 0 127.95 447.94
  L 254.14 448.00
  A 1.31 1.30 -90.0 0 0 255.44 446.69
  L 255.44 384.72
  A 0.72 0.72 -0.0 0 1 256.16 384.00
  L 318.66 384.00
  A 0.59 0.59 45.0 0 1 319.25 384.59
  L 319.31 447.19
  A 0.81 0.81 -45.0 0 1 318.50 448.00
  L 256.24 448.00
  A 0.99 0.99 -45.0 0 0 255.25 448.99
  L 255.25 575.32
  A 0.68 0.68 -0.0 0 0 255.93 576.00
  L 318.51 576.00
  A 0.93 0.93 0.0 0 0 319.44 575.07
  L 319.51 512.76
  A 0.76 0.76 -45.0 0 1 320.27 512.00
  L 382.54 512.00
  A 0.76 0.74 0.0 0 0 383.30 511.26
  L 383.32 448.94
  A 0.94 0.92 -90.0 0 1 384.24 448.00
  L 446.61 448.00
  A 0.64 0.64 -45.0 0 1 447.25 448.64
  L 447.31 575.30
  A 0.70 0.70 90.0 0 0 448.01 576.00
  L 510.58 575.94
  A 0.74 0.73 -89.6 0 0 511.31 575.21
  L 511.50 513.03
  A 0.97 0.96 -90.0 0 1 512.46 512.06
  L 638.49 512.00
  A 0.83 0.83 -89.7 0 0 639.32 511.18
  L 639.43 448.82
  A 0.82 0.81 -90.0 0 1 640.24 448.00
  L 702.66 448.00
  A 0.59 0.59 0.1 0 1 703.25 448.59
  L 703.25 511.32
  A 0.68 0.68 -90.0 0 0 703.93 512.00
  L 766.52 512.00
  A 0.92 0.92 0.0 0 0 767.44 511.08
  L 767.50 385.28
  A 1.30 1.29 0.2 0 0 766.21 383.99
  L 703.93 383.82
  A 0.51 0.49 90.0 0 1 703.44 383.31
  L 703.50 320.77
  A 0.77 0.77 -45.0 0 1 704.27 320.00
  L 830.57 319.94
  A 0.73 0.73 -89.6 0 0 831.30 319.22
  Q 831.82 287.47 831.26 257.09
  A 1.13 1.12 -0.3 0 0 830.14 255.99
  L 767.93 255.82
  A 0.51 0.49 90.0 0 1 767.44 255.31
  L 767.50 192.93
  A 0.96 0.94 -0.3 0 1 768.45 191.99
  L 831.21 191.75
  Z
  M 64.42 575.81
  L 190.21 576.00
  A 1.29 1.29 0.0 0 0 191.50 574.71
  L 191.50 513.09
  A 1.09 1.09 -89.7 0 0 190.41 512.00
  L 64.12 512.00
  A 0.69 0.69 -89.1 0 0 63.43 512.67
  Q 62.92 543.72 63.50 574.90
  A 0.92 0.92 89.7 0 0 64.42 575.81
  Z
  M 639.31 576.80
  A 0.80 0.80 0.0 0 0 638.51 576.00
  L 576.05 576.00
  A 0.80 0.80 0.0 0 0 575.25 576.80
  L 575.25 639.20
  A 0.80 0.80 0.0 0 0 576.05 640.00
  L 638.51 640.00
  A 0.80 0.80 0.0 0 0 639.31 639.20
  L 639.31 576.80
  Z"
/>
<rect fill="#6daa2c" x="575.49" y="256.00" width="63.80" height="64.00" rx="0.27"/>
<path fill="#514d44" fill-opacity="0.682" d="
  M 895.00 262.56
  L 895.00 269.06
  Q 894.37 265.81 895.00 262.56
  Z"
/>
<path fill="#403e35" fill-opacity="0.529" d="
  M 895.00 280.06
  L 895.00 287.06
  Q 894.37 283.56 895.00 280.06
  Z"
/>
<path fill="#2d2b26" fill-opacity="0.365" d="
  M 895.00 298.56
  L 895.00 303.06
  Q 894.37 300.81 895.00 298.56
  Z"
/>
<path fill="#2d2b26" fill-opacity="0.365" d="
  M 895.00 306.56
  L 895.00 311.06
  Q 894.37 308.81 895.00 306.56
  Z"
/>
<path fill="#2d2b26" fill-opacity="0.365" d="
  M 895.00 314.56
  L 895.00 319.06
  Q 894.37 316.81 895.00 314.56
  Z"
/>
<path fill="#2d2b26" fill-opacity="0.365" d="
  M 895.00 322.56
  L 895.00 327.06
  Q 894.37 324.81 895.00 322.56
  Z"
/>
<path fill="#2d2b26" fill-opacity="0.365" d="
  M 895.00 330.56
  L 895.00 335.06
  Q 894.37 332.81 895.00 330.56
  Z"
/>
<path fill="#2d2b26" fill-opacity="0.365" d="
  M 895.00 338.56
  L 895.00 343.06
  Q 894.37 340.81 895.00 338.56
  Z"
/>
<path fill="#2d2b26" fill-opacity="0.365" d="
  M 895.00 346.56
  L 895.00 351.06
  Q 894.37 348.81 895.00 346.56
  Z"
/>
<path fill="#2d2b26" fill-opacity="0.365" d="
  M 895.00 354.56
  L 895.00 359.06
  Q 894.37 356.81 895.00 354.56
  Z"
/>
<path fill="#2d2b26" fill-opacity="0.365" d="
  M 895.00 362.56
  L 895.00 367.06
  Q 894.37 364.81 895.00 362.56
  Z"
/>
<path fill="#2d2b26" fill-opacity="0.365" d="
  M 895.00 370.56
  L 895.00 375.06
  Q 894.37 372.81 895.00 370.56
  Z"
/>
<path fill="#2d2b26" fill-opacity="0.365" d="
  M 895.00 378.56
  L 895.00 383.06
  Q 894.37 380.81 895.00 378.56
  Z"
/>
<rect fill="#442434" x="575.49" y="384.00" width="63.76" height="64.00" rx="0.27"/>
<path fill="#2d2b26" fill-opacity="0.365" d="
  M 895.00 386.56
  L 895.00 391.06
  Q 894.37 388.81 895.00 386.56
  Z"
/>
<path fill="#2d2b26" fill-opacity="0.365" d="
  M 895.00 394.56
  L 895.00 399.06
  Q 894.37 396.81 895.00 394.56
  Z"
/>
<path fill="#2d2b26" fill-opacity="0.365" d="
  M 895.00 402.56
  L 895.00 407.06
  Q 894.37 404.81 895.00 402.56
  Z"
/>
<path fill="#403e35" fill-opacity="0.529" d="
  M 895.00 418.06
  L 895.00 424.06
  Q 894.37 421.06 895.00 418.06
  Z"
/>
<path fill="#346524" d="
  M 0.00 447.94
  L 62.47 448.00
  A 1.04 1.04 -89.5 0 1 63.51 449.06
  Q 62.96 480.47 63.43 510.44
  A 1.55 1.54 -0.4 0 1 61.88 512.00
  L 0.00 512.19
  L 0.00 447.94
  Z"
/>
<path fill="#346524" d="
  M 895.00 448.06
  L 895.00 448.81
  Q 894.37 479.44 895.00 510.06
  L 895.00 510.56
  Q 894.58 511.20 894.71 512.00
  L 832.02 512.00
  A 0.71 0.70 0.0 0 1 831.31 511.30
  L 831.25 449.11
  A 1.11 1.11 -45.0 0 1 832.36 448.00
  L 895.00 448.06
  Z"
/>
<path fill="#403e35" fill-opacity="0.529" d="
  M 895.00 448.81
  L 895.00 510.06
  Q 894.37 479.44 895.00 448.81
  Z"
/>
<path fill="#161511" fill-opacity="0.184" d="
  M 895.00 510.56
  L 895.00 515.06
  L 894.71 512.00
  Q 894.58 511.20 895.00 510.56
  Z"
/>
<path fill="#346524" d="
  M 64.42 575.81
  A 0.92 0.92 89.7 0 1 63.50 574.90
  Q 62.92 543.72 63.43 512.67
  A 0.69 0.69 -89.1 0 1 64.12 512.00
  L 190.41 512.00
  A 1.09 1.09 -90.0 0 1 191.50 513.09
  L 191.50 574.71
  A 1.29 1.29 0.2 0 1 190.21 576.00
  L 64.42 575.81
  Z"
/>
<path fill="#403e35" fill-opacity="0.529" d="
  M 895.00 530.06
  L 895.00 536.06
  Q 894.37 533.06 895.00 530.06
  Z"
/>
<path fill="#403e35" fill-opacity="0.529" d="
  M 895.00 551.56
  L 895.00 572.06
  Q 894.37 561.81 895.00 551.56
  Z"
/>
<path fill="#346524" d="
  M 319.50 704.04
  L 319.25 703.96
  L 319.25 576.82
  A 0.76 0.75 -90.0 0 1 320.00 576.06
  L 382.24 576.00
  A 1.26 1.26 -45.0 0 1 383.50 577.26
  L 383.50 702.74
  A 1.26 1.26 45.0 0 1 382.24 704.00
  L 319.50 704.04
  Z"
/>
<rect fill="#346524" x="575.25" y="576.00" width="64.06" height="64.00" rx="0.80"/>
<path fill="#346524" d="
  M 703.25 703.96
  L 639.50 703.96
  L 639.26 641.12
  A 1.12 1.11 -0.3 0 1 640.38 640.00
  L 702.73 640.00
  A 0.52 0.52 0.0 0 0 703.25 639.48
  L 703.25 576.99
  A 0.99 0.99 -45.0 0 1 704.24 576.00
  L 766.41 576.00
  A 1.09 1.09 -45.0 0 1 767.50 577.09
  L 767.44 638.53
  A 1.41 1.40 -90.0 0 1 766.04 639.94
  L 704.03 640.00
  A 0.71 0.71 89.6 0 0 703.32 640.72
  Q 703.83 672.14 703.25 703.96
  Z"
/>
<path fill="#757161" d="
  M 767.21 703.75
  L 767.54 704.25
  Q 767.23 732.71 767.43 761.17
  Q 767.43 761.24 767.29 763.95
  Q 767.18 765.97 767.75 767.96
  L 767.25 768.29
  Q 766.15 768.00 763.50 768.00
  Q 733.62 767.97 703.75 768.04
  L 640.52 768.00
  A 1.02 1.02 0.0 0 0 639.50 769.02
  Q 639.50 799.62 639.50 830.75
  Q 639.50 831.64 639.21 832.00
  L 576.10 832.00
  A 0.60 0.60 -0.0 0 1 575.50 831.40
  L 575.44 704.68
  A 0.50 0.50 -45.0 0 1 575.94 704.18
  L 639.50 703.96
  L 703.25 703.96
  L 767.21 703.75
  Z"
/>
<path fill="#575349" fill-opacity="0.733" d="
  M 191.50 704.04
  Q 190.69 704.40 191.25 705.00
  Q 191.63 712.82 191.53 720.63
  Q 191.34 735.48 191.35 736.25
  Q 191.42 751.85 191.50 767.46
  Q 191.10 767.73 191.25 768.25
  Q 189.57 767.94 184.94 767.94
  Q 156.54 767.91 128.15 767.94
  A 1.00 0.31 40.3 0 1 127.57 767.69
  L 127.29 767.50
  Q 127.19 749.74 127.28 731.98
  Q 127.28 731.85 127.20 719.41
  Q 127.15 711.82 127.54 704.25
  L 191.50 704.04
  Z"
/>
<path fill="#757161" d="
  M 191.50 704.04
  L 319.25 703.96
  L 319.50 704.04
  Q 318.93 767.61 319.44 831.06
  A 0.94 0.93 -0.3 0 1 318.50 832.00
  Q 287.00 832.00 256.25 832.00
  Q 255.61 831.62 255.25 832.25
  L 255.21 832.00
  L 255.42 769.63
  A 1.55 1.52 -89.8 0 0 253.90 768.07
  L 192.72 768.07
  A 0.72 0.71 0.8 0 1 192.00 767.34
  Q 192.06 765.64 191.50 767.46
  Q 191.42 751.85 191.35 736.25
  Q 191.34 735.48 191.53 720.63
  Q 191.63 712.82 191.25 705.00
  Q 190.69 704.40 191.50 704.04
  Z"
/>
<path fill="#854c30" d="
  M 575.50 896.04
  L 575.25 959.71
  Q 575.02 959.77 574.96 960.00
  L 449.00 960.21
  L 447.75 960.21
  Q 447.60 959.91 447.25 959.96
  Q 447.19 952.05 447.32 944.14
  Q 447.45 936.27 447.31 928.36
  Q 447.02 912.46 447.49 896.69
  A 0.67 0.66 1.2 0 0 446.82 896.00
  L 384.37 896.00
  A 0.89 0.88 -89.7 0 0 383.49 896.88
  L 383.25 959.71
  Q 381.23 960.05 377.25 960.00
  Q 354.52 959.72 319.29 960.25
  L 319.21 960.00
  Q 319.90 928.00 319.21 896.00
  Q 319.52 895.68 319.50 895.25
  Q 319.12 886.88 319.25 878.50
  Q 319.63 856.00 319.50 832.67
  A 0.66 0.66 89.6 0 1 320.16 832.00
  L 383.00 832.00
  A 0.50 0.50 45.0 0 0 383.50 831.50
  L 383.44 768.72
  A 0.72 0.72 -0.0 0 1 384.16 768.00
  L 446.82 768.00
  A 0.68 0.67 0.0 0 0 447.50 767.33
  L 447.43 704.68
  A 0.69 0.68 -0.0 0 1 448.12 704.00
  L 510.63 704.00
  A 0.68 0.68 0.1 0 1 511.31 704.68
  L 511.43 895.31
  A 0.52 0.52 -0.6 0 0 511.94 895.82
  L 575.50 896.04
  Z"
/>
<path fill="#403e35" fill-opacity="0.529" d="
  M 831.46 767.25
  L 830.75 767.96
  L 767.75 767.96
  Q 767.18 765.97 767.29 763.95
  Q 767.43 761.24 767.43 761.17
  Q 767.23 732.71 767.54 704.25
  Q 799.05 703.67 830.62 704.19
  A 0.84 0.82 -89.7 0 1 831.43 705.03
  L 831.46 767.25
  Z"
/>
<path fill="#666254" fill-opacity="0.863" d="
  M 255.21 832.00
  L 194.02 831.76
  A 1.21 1.20 0.5 0 1 192.82 830.55
  Q 193.13 801.90 193.00 772.62
  Q 193.00 772.53 193.17 770.90
  Q 193.38 768.87 191.25 768.25
  Q 191.10 767.73 191.50 767.46
  Q 192.06 765.64 192.00 767.34
  A 0.72 0.71 0.8 0 0 192.72 768.07
  L 253.90 768.07
  A 1.55 1.52 -89.8 0 1 255.42 769.63
  L 255.21 832.00
  Z"
/>
<path fill="#0b0b08" fill-opacity="0.094" d="
  M 831.46 767.25
  Q 831.95 768.26 833.50 768.25
  Q 863.75 768.07 893.77 768.50
  A 0.99 0.99 0.3 0 1 894.75 769.49
  L 894.69 831.42
  A 0.89 0.89 -1.0 0 1 893.83 832.31
  Q 881.26 832.86 868.72 832.26
  Q 860.21 831.86 852.25 832.01
  Q 842.00 832.21 831.75 831.77
  A 0.51 0.50 -87.7 0 1 831.27 831.24
  Q 831.41 828.32 831.69 825.41
  Q 831.98 822.39 831.82 819.57
  Q 831.36 811.17 831.47 802.75
  Q 831.67 785.75 831.25 768.75
  Q 831.24 768.43 830.75 767.96
  L 831.46 767.25
  Z"
/>
<path fill="#0f0e0c" fill-opacity="0.122" d="
  M 127.29 767.50
  L 127.57 767.69
  A 1.00 0.31 40.3 0 0 128.15 767.94
  Q 156.54 767.91 184.94 767.94
  Q 189.57 767.94 191.25 768.25
  L 191.29 768.50
  L 191.21 832.75
  Q 190.55 832.52 189.90 832.26
  Q 189.23 832.00 188.55 832.00
  Q 158.48 831.95 128.42 832.06
  Q 128.01 832.06 127.75 832.25
  Q 127.46 832.47 127.25 832.79
  Q 126.27 835.02 126.19 832.82
  A 0.52 0.50 89.4 0 0 125.69 832.31
  Q 96.76 832.21 67.82 832.31
  Q 67.75 832.31 65.81 832.50
  Q 63.17 832.76 63.36 829.79
  Q 63.49 827.77 63.49 827.70
  Q 63.35 798.22 63.71 768.75
  Q 66.04 768.04 68.50 768.04
  Q 97.63 768.00 126.75 768.00
  Q 127.33 768.00 127.29 767.50
  Z"
/>
<path fill="#625f51" fill-opacity="0.831" d="
  M 703.75 768.04
  Q 703.12 768.35 703.23 768.93
  Q 703.32 769.36 703.32 769.47
  Q 703.80 800.86 703.29 832.25
  L 703.29 895.50
  Q 703.25 895.93 702.96 896.25
  Q 666.64 895.70 645.50 896.00
  Q 641.82 896.05 639.75 895.46
  Q 639.21 858.62 639.50 835.75
  Q 639.53 833.17 639.21 832.00
  Q 639.50 831.64 639.50 830.75
  Q 639.50 799.62 639.50 769.02
  A 1.02 1.02 -0.0 0 1 640.52 768.00
  L 703.75 768.04
  Z"
/>
<path fill="#4f4a42" fill-opacity="0.655" d="
  M 703.75 768.04
  Q 733.62 767.97 763.50 768.00
  Q 766.15 768.00 767.25 768.29
  Q 767.74 780.38 767.50 790.00
  Q 766.96 812.22 767.54 831.50
  Q 766.78 832.00 766.50 832.00
  Q 741.72 831.84 716.94 831.94
  Q 706.89 831.97 703.29 832.25
  Q 703.80 800.86 703.32 769.47
  Q 703.32 769.36 703.23 768.93
  Q 703.12 768.35 703.75 768.04
  Z"
/>
<path fill="#625f51" fill-opacity="0.831" d="
  M 191.25 768.25
  Q 193.38 768.87 193.17 770.90
  Q 193.00 772.53 193.00 772.62
  Q 193.13 801.90 192.82 830.55
  A 1.21 1.20 0.5 0 0 194.02 831.76
  L 255.21 832.00
  L 255.25 832.25
  L 192.42 832.01
  A 0.68 0.67 0.4 0 1 191.75 831.34
  Q 191.75 799.75 191.75 769.25
  Q 191.75 768.45 191.29 768.50
  L 191.25 768.25
  Z"
/>
<path fill="#514d44" fill-opacity="0.682" d="
  M 191.29 768.50
  Q 191.75 768.45 191.75 769.25
  Q 191.75 799.75 191.75 831.34
  A 0.68 0.67 0.4 0 0 192.42 832.01
  L 255.25 832.25
  L 255.50 895.96
  L 255.25 896.04
  Q 254.54 896.96 253.99 896.45
  A 1.40 0.72 52.8 0 0 253.18 896.06
  L 193.56 896.06
  A 0.52 0.52 -88.9 0 0 193.04 896.56
  Q 192.52 908.90 192.77 921.25
  Q 192.86 925.87 192.63 930.47
  Q 192.39 935.04 192.50 939.66
  Q 192.66 947.09 191.96 954.50
  Q 191.83 955.83 192.30 957.03
  Q 192.42 957.36 192.51 958.01
  Q 192.64 958.98 193.76 958.85
  A 1.72 0.81 37.4 0 1 194.65 959.04
  Q 195.14 959.25 196.00 959.25
  Q 224.91 959.22 253.81 959.06
  A 0.76 0.69 80.0 0 0 254.44 958.06
  Q 254.01 956.79 254.66 957.63
  Q 254.75 957.74 254.77 957.89
  Q 254.99 959.02 255.25 956.79
  L 255.21 960.00
  Q 224.23 960.00 193.25 960.00
  Q 191.69 960.00 191.21 959.50
  Q 191.21 915.12 191.44 900.94
  Q 191.50 897.36 191.21 896.00
  L 191.21 832.75
  L 191.29 768.50
  Z"
/>
<path fill="#070706" fill-opacity="0.059" d="
  M 63.71 768.75
  Q 63.35 798.22 63.49 827.70
  Q 63.49 827.77 63.36 829.79
  Q 63.17 832.76 65.81 832.50
  Q 67.75 832.31 67.82 832.31
  Q 96.76 832.21 125.69 832.31
  A 0.52 0.50 89.4 0 1 126.19 832.82
  Q 126.27 835.02 127.25 832.79
  Q 127.90 864.52 127.21 896.25
  Q 125.18 894.98 123.58 896.63
  A 1.20 1.05 -64.8 0 1 122.75 896.99
  Q 95.87 896.58 69.00 896.74
  Q 68.02 896.75 66.10 896.19
  Q 64.88 895.84 63.56 895.90
  A 0.48 0.45 -1.2 0 1 63.06 895.45
  Q 62.95 832.72 63.00 770.00
  Q 63.00 768.85 63.71 768.75
  Z"
/>
<path fill="#0c0c09" fill-opacity="0.106" d="
  M 767.54 831.50
  Q 771.97 832.14 776.41 832.04
  Q 783.88 831.86 783.98 831.86
  Q 806.67 832.12 829.98 832.00
  A 1.58 1.58 89.4 0 1 831.57 833.57
  Q 831.65 853.78 831.10 874.52
  Q 831.05 876.36 831.42 881.96
  Q 831.58 884.46 831.42 886.95
  Q 831.19 890.63 831.20 891.92
  Q 831.29 924.60 831.25 957.73
  Q 831.25 959.94 829.05 959.94
  L 703.75 959.96
  L 766.08 959.76
  A 1.11 1.09 -0.0 0 0 767.19 958.67
  L 767.25 896.65
  A 0.59 0.59 0.0 0 0 766.66 896.06
  L 705.07 895.94
  A 1.57 0.44 36.2 0 1 704.19 895.61
  Q 703.81 895.38 703.29 895.50
  L 703.29 832.25
  Q 706.89 831.97 716.94 831.94
  Q 741.72 831.84 766.50 832.00
  Q 766.78 832.00 767.54 831.50
  Z"
/>
<path fill="#2d2b26" fill-opacity="0.365" d="
  M 191.21 832.75
  L 191.21 896.00
  Q 181.09 896.37 171.00 895.69
  Q 166.51 895.38 161.64 895.79
  Q 154.56 896.39 147.44 896.19
  Q 144.43 896.10 131.98 896.18
  Q 131.93 896.18 130.41 896.04
  Q 128.83 895.90 127.54 897.00
  Q 127.50 896.57 127.21 896.25
  Q 127.90 864.52 127.25 832.79
  Q 127.46 832.47 127.75 832.25
  Q 128.01 832.06 128.42 832.06
  Q 158.48 831.95 188.55 832.00
  Q 189.23 832.00 189.90 832.26
  Q 190.55 832.52 191.21 832.75
  Z"
/>
<path fill="#1a1915" fill-opacity="0.231" d="
  M 191.21 896.00
  Q 191.50 897.36 191.44 900.94
  Q 191.21 915.12 191.21 959.50
  L 131.50 959.79
  L 128.04 959.77
  A 0.55 0.54 0.5 0 1 127.50 959.23
  L 127.54 897.00
  Q 128.83 895.90 130.41 896.04
  Q 131.93 896.18 131.98 896.18
  Q 144.43 896.10 147.44 896.19
  Q 154.56 896.39 161.64 895.79
  Q 166.51 895.38 171.00 895.69
  Q 181.09 896.37 191.21 896.00
  Z"
/>
<path fill="#4d4940" fill-opacity="0.647" d="
  M 639.75 895.46
  Q 641.82 896.05 645.50 896.00
  Q 666.64 895.70 702.96 896.25
  Q 703.38 911.07 703.50 954.00
  Q 703.51 958.02 702.75 959.96
  L 639.29 959.75
  L 639.25 895.79
  L 639.75 895.46
  Z"
/>
<path fill="#272520" fill-opacity="0.322" d="
  M 703.29 895.50
  Q 703.81 895.38 704.19 895.61
  A 1.57 0.44 36.2 0 0 705.07 895.94
  L 766.66 896.06
  A 0.59 0.59 45.0 0 1 767.25 896.65
  L 767.19 958.67
  A 1.11 1.09 -0.0 0 1 766.08 959.76
  L 703.75 959.96
  L 703.25 960.04
  L 702.75 959.96
  Q 703.51 958.02 703.50 954.00
  Q 703.38 911.07 702.96 896.25
  Q 703.25 895.93 703.29 895.50
  Z"
/>
<path fill="#757161" d="
  M 639.25 895.79
  L 639.29 959.75
  L 639.25 959.96
  Q 608.25 960.03 577.25 960.00
  Q 575.80 960.00 575.25 959.71
  L 575.50 896.04
  L 639.25 895.79
  Z"
/>
<path fill="#555148" fill-opacity="0.718" d="
  M 255.25 896.04
  L 255.25 956.79
  Q 254.99 959.02 254.77 957.89
  Q 254.75 957.74 254.66 957.63
  Q 254.01 956.79 254.44 958.06
  A 0.76 0.69 80.0 0 1 253.81 959.06
  Q 224.91 959.22 196.00 959.25
  Q 195.14 959.25 194.65 959.04
  A 1.72 0.81 37.4 0 0 193.76 958.85
  Q 192.64 958.98 192.51 958.01
  Q 192.42 957.36 192.30 957.03
  Q 191.83 955.83 191.96 954.50
  Q 192.66 947.09 192.50 939.66
  Q 192.39 935.04 192.63 930.47
  Q 192.86 925.87 192.77 921.25
  Q 192.52 908.90 193.04 896.56
  A 0.52 0.52 -88.9 0 1 193.56 896.06
  L 253.18 896.06
  A 1.40 0.72 52.8 0 1 253.99 896.45
  Q 254.54 896.96 255.25 896.04
  Z"
/>
<path fill="#757161" d="
  M 255.25 896.04
  L 255.50 895.96
  L 319.21 896.00
  Q 319.90 928.00 319.21 960.00
  Q 288.60 960.00 258.00 960.00
  Q 255.89 960.00 255.29 960.25
  L 255.21 960.00
  L 255.25 956.79
  L 255.25 896.04
  Z"
/>
<path fill="#442434" d="
  M 447.25 959.96
  Q 416.25 960.03 385.25 960.00
  Q 383.80 960.00 383.25 959.71
  L 383.49 896.88
  A 0.89 0.88 -89.7 0 1 384.37 896.00
  L 446.82 896.00
  A 0.67 0.66 1.2 0 1 447.49 896.69
  Q 447.02 912.46 447.31 928.36
  Q 447.45 936.27 447.32 944.14
  Q 447.19 952.05 447.25 959.96
  Z"
/>
<path fill="#0b0b08" fill-opacity="0.094" d="
  M 191.21 959.50
  Q 191.69 960.00 193.25 960.00
  Q 224.23 960.00 255.21 960.00
  L 255.29 960.25
  Q 255.84 991.98 255.25 1023.71
  L 192.01 1023.75
  A 0.79 0.77 89.6 0 1 191.24 1022.97
  L 191.01 960.75
  A 0.50 0.50 -45.0 0 0 190.51 960.25
  L 131.50 959.79
  L 191.21 959.50
  Z"
/>
<path fill="#514d44" fill-opacity="0.682" d="
  M 319.21 960.00
  L 319.29 960.25
  L 319.46 963.50
  L 319.19 1024.00
  L 255.69 1024.00
  Q 255.77 1023.68 255.25 1023.71
  Q 255.84 991.98 255.29 960.25
  Q 255.89 960.00 258.00 960.00
  Q 288.60 960.00 319.21 960.00
  Z"
/>
<path fill="#6b6859" fill-opacity="0.914" d="
  M 383.25 959.71
  Q 383.80 960.00 385.25 960.00
  Q 416.25 960.03 447.25 959.96
  Q 447.60 959.91 447.75 960.21
  L 447.28 960.25
  A 0.54 0.49 88.3 0 0 446.82 960.79
  L 446.94 1022.93
  A 0.51 0.49 90.0 0 1 446.45 1023.44
  L 321.17 1023.50
  A 0.95 0.95 -86.0 0 1 320.23 1022.42
  Q 320.33 1021.68 320.05 1021.16
  Q 319.75 1020.59 319.75 1020.25
  L 319.69 961.06
  Q 319.69 960.49 319.60 961.06
  Q 319.40 962.27 319.46 963.50
  L 319.29 960.25
  Q 354.52 959.72 377.25 960.00
  Q 381.23 960.05 383.25 959.71
  Z"
/>
<path fill="#4a473e" fill-opacity="0.627" d="
  M 575.25 959.71
  Q 575.80 960.00 577.25 960.00
  Q 608.25 960.03 639.25 959.96
  Q 639.64 972.45 639.32 984.94
  Q 639.06 994.95 639.26 1002.56
  Q 639.59 1015.36 639.44 1020.19
  Q 639.36 1022.87 639.75 1023.71
  Q 639.23 1023.63 638.94 1024.00
  L 573.94 1024.00
  Q 567.06 1023.37 560.19 1024.00
  L 559.94 1024.00
  Q 560.17 1023.47 561.25 1023.50
  Q 567.63 1023.67 572.31 1023.36
  Q 575.00 1023.18 575.00 1020.49
  Q 575.00 991.25 575.06 964.00
  Q 575.06 962.22 575.06 963.75
  Q 575.38 1079.89 575.50 962.50
  Q 575.50 960.90 574.96 960.00
  Q 575.02 959.77 575.25 959.71
  Z"
/>
<path fill="#161511" fill-opacity="0.184" d="
  M 639.29 959.75
  L 702.75 959.96
  L 703.25 960.04
  L 703.25 1022.53
  A 1.22 1.22 -0.0 0 1 702.03 1023.75
  L 639.75 1023.71
  Q 639.36 1022.87 639.44 1020.19
  Q 639.59 1015.36 639.26 1002.56
  Q 639.06 994.95 639.32 984.94
  Q 639.64 972.45 639.25 959.96
  L 639.29 959.75
  Z"
/>
<path fill="#5d594d" fill-opacity="0.784" d="
  M 574.96 960.00
  Q 575.50 960.90 575.50 962.50
  Q 575.38 1079.89 575.06 963.75
  Q 575.06 962.22 575.06 964.00
  Q 575.00 991.25 575.00 1020.49
  Q 575.00 1023.18 572.31 1023.36
  Q 567.63 1023.67 561.25 1023.50
  Q 560.17 1023.47 559.94 1024.00
  L 510.94 1024.00
  Q 482.56 1023.37 454.19 1024.00
  L 448.19 1024.00
  Q 448.69 1023.50 450.25 1023.50
  Q 479.50 1023.48 509.52 1023.50
  A 1.58 1.57 6.8 0 0 511.05 1022.30
  Q 511.70 1019.55 511.48 1016.70
  Q 511.08 1011.62 511.09 1011.15
  Q 511.27 986.98 511.31 962.81
  Q 511.31 962.44 511.55 961.88
  Q 512.00 960.79 510.50 960.70
  Q 510.33 960.69 510.47 960.61
  Q 510.89 960.39 510.50 960.39
  Q 479.75 960.28 449.00 960.21
  L 574.96 960.00
  Z"
/>
<path fill="#615d50" fill-opacity="0.824" d="
  M 447.75 960.21
  L 449.00 960.21
  Q 479.75 960.28 510.50 960.39
  Q 510.89 960.39 510.47 960.61
  Q 510.33 960.69 510.50 960.70
  Q 512.00 960.79 511.55 961.88
  Q 511.31 962.44 511.31 962.81
  Q 511.27 986.98 511.09 1011.15
  Q 511.08 1011.62 511.48 1016.70
  Q 511.70 1019.55 511.05 1022.30
  A 1.58 1.57 6.8 0 1 509.52 1023.50
  Q 479.50 1023.48 450.25 1023.50
  Q 448.69 1023.50 448.19 1024.00
  L 319.19 1024.00
  L 319.46 963.50
  Q 319.40 962.27 319.60 961.06
  Q 319.69 960.49 319.69 961.06
  L 319.75 1020.25
  Q 319.75 1020.59 320.05 1021.16
  Q 320.33 1021.68 320.23 1022.42
  A 0.95 0.95 -86.0 0 0 321.17 1023.50
  L 446.45 1023.44
  A 0.51 0.49 -90.0 0 0 446.94 1022.93
  L 446.82 960.79
  A 0.54 0.49 88.3 0 1 447.28 960.25
  L 447.75 960.21
  Z"
/>
<path fill="#575349" fill-opacity="0.733" d="
  M 510.94 1024.00
  L 454.19 1024.00
  Q 482.56 1023.37 510.94 1024.00
  Z"
/>
<path fill="#555148" fill-opacity="0.718" d="
  M 573.94 1024.00
  L 560.19 1024.00
  Q 567.06 1023.37 573.94 1024.00
  Z"
/>
</svg>
